<svg xmlns="http://www.w3.org/2000/svg" viewBox="0 0 511.89 485"><defs><style>.cls-1{fill:#e5f3f9;}.cls-2{fill:#bee1f4;}.cls-3,.cls-36{fill:#112b46;}.cls-10,.cls-11,.cls-12,.cls-13,.cls-15,.cls-3,.cls-30,.cls-4,.cls-5,.cls-53,.cls-54,.cls-6,.cls-7,.cls-8,.cls-9{fill-rule:evenodd;}.cls-4{fill:#21496d;}.cls-26,.cls-5{fill:#495dea;}.cls-40,.cls-45,.cls-49,.cls-6{fill:#fff;}.cls-27,.cls-7{fill:#606bf1;}.cls-8{fill:#20318d;}.cls-44,.cls-9{fill:#ffc8af;}.cls-10,.cls-25{fill:#7181f4;}.cls-11{fill:#f4ae92;}.cls-12,.cls-24{fill:#ec827d;}.cls-13,.cls-31{fill:#fbd15b;}.cls-14{fill:#83c9ff;}.cls-15,.cls-16{fill:#56548c;}.cls-17{isolation:isolate;}.cls-18{fill:#a3d8ef;}.cls-19{fill:#cee9f4;}.cls-20{fill:#6cc6e5;}.cls-21{fill:#d86868;}.cls-22{fill:#d34c4c;}.cls-23{fill:#f49898;}.cls-28{fill:#efbc3f;}.cls-29{fill:#ffdc85;}.cls-30{fill:#f2ad91;}.cls-32{fill:#a5b7c6;}.cls-33{fill:#b6c7d3;}.cls-34{fill:none;}.cls-35{fill:#878cf0;}.cls-37{fill:#ccd9e2;}.cls-38{fill:#eee;}.cls-39{fill:#879faf;}.cls-41{fill:#00c3b6;}.cls-42{fill:#ceccff;}.cls-43{fill:#eaeeef;}.cls-45{font-size:10.66px;}.cls-45,.cls-49{font-family:OpenSans-Semibold, OpenSans Semibold;font-weight:600;}.cls-46{letter-spacing:-0.01em;}.cls-47{letter-spacing:-0.08em;}.cls-48{letter-spacing:-0.07em;}.cls-49{font-size:12.68px;}.cls-50{letter-spacing:-0.01em;}.cls-51{letter-spacing:-0.08em;}.cls-52{letter-spacing:-0.08em;}.cls-53{fill:#303072;}.cls-54{fill:#46467f;}</style></defs><title>Asset 3</title><g id="Layer_2" data-name="Layer 2"><g id="OBJECTS"><path class="cls-1" d="M149.25,200.53a19.33,19.33,0,0,1-13.94,5.2,26.55,26.55,0,0,1-16.11-6.64l-.4-.35c1.1-.06,2.19-.14,3.28-.22,5-.41,10.23-1,14.55-3.29a48.24,48.24,0,0,1-23-1.95,41.59,41.59,0,0,1-6.31-11.35,28.32,28.32,0,0,0,2.88,1.53c6.59,3,14.08,3.09,21.32,2a96.27,96.27,0,0,1-26.12-10.61,40.29,40.29,0,0,1-.5-10.23,26.07,26.07,0,0,1,2.52,2.94c1.47,2,2.6,4.36,4.55,5.92,2.64,2.12,6.28,2.41,9.66,2.51,1.73,0,3.47.06,5.21,0-2-.73-4.09-1.51-6.1-2.34a37.66,37.66,0,0,1-5.24-2.52c-4.16-2.51-7.3-6.31-10.12-10.32a37.36,37.36,0,0,1,1.71-6.25,49.84,49.84,0,0,0,15.3,9.95,78.59,78.59,0,0,1-13.91-13.24,36.08,36.08,0,0,1,2.94-5.08,37,37,0,0,0,14.24,10.66,48.87,48.87,0,0,1-11.55-14.11q1.47-1.72,3.1-3.3a21.84,21.84,0,0,0,3,3,24.66,24.66,0,0,0,3.06,2.09,35.94,35.94,0,0,1-4.07-7,52.91,52.91,0,0,1,4.52-3.54Z"/><path class="cls-1" d="M149.25,200.53c2.63.72,7.39.05,9.86-1.08a22.06,22.06,0,0,0,7.37-5.31c4-4.45,5.63-10.54,6.13-16.51a31,31,0,0,1-7.07,5,60.36,60.36,0,0,1-8.34,3.27c2.81-2.83,5.39-6,8.52-8.47,1.1-.87,2.27-1.67,3.34-2.59a17.3,17.3,0,0,0,3.63-4.4,39.28,39.28,0,0,0-3.26-13.64,44.51,44.51,0,0,1-2.66,6.2,23.6,23.6,0,0,1-4.14,6.28,16.73,16.73,0,0,1-4.72,3.15,25.63,25.63,0,0,0,2.69-3.35c3.53-5.3,4.54-11.83,5.37-18.18a35.22,35.22,0,0,0-4.8-5.19A33.79,33.79,0,0,1,151,166.57c.52-1,1-2,1.43-3a65.22,65.22,0,0,0,3.79-9.87,51,51,0,0,0,1.19-6.37,22.74,22.74,0,0,0,.26-3.19,10.13,10.13,0,0,0-.08-1.22,44.22,44.22,0,0,0-6.1-3.6,22.86,22.86,0,0,1,0,8.37,26.07,26.07,0,0,1-1.64,4.92,41.08,41.08,0,0,1-5.3,9.18,33.9,33.9,0,0,0,2.09-24.57,34.19,34.19,0,0,0-4.82-1.36,26,26,0,0,1-.08,10,26,26,0,0,0-3-10.52c-1.85-.26-3.7-.42-5.58-.55a21.62,21.62,0,0,1,.18,6.32,21.06,21.06,0,0,0-2.39-6.46c-2.32-.14-4.7-.29-7.18-.57Z"/><path class="cls-2" d="M141.1,190.24c-1.32.09-2.64.22-4,.27-2.64.14-5.29.17-7.94.13s-5.29-.21-7.92-.49a60.72,60.72,0,0,1-7.82-1.29,60.82,60.82,0,0,0,7.84,1.08c2.63.21,5.27.28,7.91.28s5.27-.13,7.89-.35c1.32-.08,2.63-.25,3.94-.37l3-.37-2.85-7.79a47.89,47.89,0,0,1-5.22.14c-1.94-.07-3.88-.21-5.8-.47a69.27,69.27,0,0,1-11.33-2.44,69.94,69.94,0,0,0,11.38,2c1.92.19,3.84.26,5.76.26a42.47,42.47,0,0,0,4.92-.31l-2.71-7.43a36.08,36.08,0,0,1-7-.75,42.07,42.07,0,0,1-7.15-2.15,54.63,54.63,0,0,1-6.73-3.21,50.45,50.45,0,0,1-6.2-4.11,50,50,0,0,0,6.28,4,54,54,0,0,0,6.76,3,41.22,41.22,0,0,0,7.13,2,33.68,33.68,0,0,0,6.64.59l-2.86-7.83a35,35,0,0,1-5.78-1.65,39.5,39.5,0,0,1-5.7-2.68,48,48,0,0,1-5.27-3.43,44.12,44.12,0,0,1-4.75-4.09,43.86,43.86,0,0,0,4.85,4,46.93,46.93,0,0,0,5.32,3.28,39.72,39.72,0,0,0,5.71,2.51,33.46,33.46,0,0,0,5.37,1.42l-3-8.16a43.42,43.42,0,0,1-6.78-4.47,41.34,41.34,0,0,1-5.93-5.75,41.11,41.11,0,0,0,6.06,5.58,43.43,43.43,0,0,0,6.43,4.05L126.42,141,134,159.72a27.06,27.06,0,0,0,1.87-4.23c.32-.82.51-1.68.76-2.52s.4-1.71.52-2.59a31.78,31.78,0,0,0,.42-5.25,29,29,0,0,0-.44-5.26,28.2,28.2,0,0,1,.55,5.26,32.26,32.26,0,0,1-.32,5.29c-.1.88-.31,1.74-.47,2.61s-.42,1.72-.72,2.56a29.06,29.06,0,0,1-2,4.64l3,7.44a36.81,36.81,0,0,0,3.58-5.64,35.52,35.52,0,0,0,2.74-6.91,37.23,37.23,0,0,0,1.35-7.34,33.24,33.24,0,0,0-.15-7.46,33.4,33.4,0,0,1,.31,7.48,38,38,0,0,1-1.2,7.4,37.13,37.13,0,0,1-2.62,7.05,39,39,0,0,1-3.74,6.1l2.73,6.79.89-.89.74-.75.68-.79,1.36-1.6,1.25-1.69a49,49,0,0,0,4.31-7.2,58.89,58.89,0,0,0,3.18-7.81,54.75,54.75,0,0,0,2-8.19,54.66,54.66,0,0,1-1.83,8.26,59.64,59.64,0,0,1-3,7.92,50.21,50.21,0,0,1-4.17,7.39l-1.23,1.74L143,173.19l-.67.82-.74.78L140.5,176l1.65,4.11a41.13,41.13,0,0,0,5.53-4,50.15,50.15,0,0,0,5.39-5.42,60.9,60.9,0,0,0,4.63-6.11,57,57,0,0,0,3.82-6.66,56.53,56.53,0,0,1-3.64,6.77,62.66,62.66,0,0,1-4.48,6.27,50.28,50.28,0,0,1-5.3,5.62,41.56,41.56,0,0,1-5.63,4.34l1.89,4.72c.89-.39,1.78-.78,2.65-1.2,1.11-.55,2.23-1.06,3.31-1.66,2.2-1.14,4.3-2.45,6.38-3.79a71.29,71.29,0,0,0,6-4.43,48.29,48.29,0,0,0,5.4-5.11,50.33,50.33,0,0,1-5.26,5.27,72.52,72.52,0,0,1-5.86,4.62c-2.05,1.41-4.13,2.78-6.31,4-1.07.64-2.19,1.19-3.29,1.78-.88.45-1.78.87-2.67,1.29l3.88,9.65a22.66,22.66,0,0,0,5.48-1.3,33.22,33.22,0,0,0,5.82-3,43.59,43.59,0,0,0,5.18-4.1,45,45,0,0,0,4.55-4.81,44.07,44.07,0,0,1-4.4,5,45.55,45.55,0,0,1-5.09,4.3,34.26,34.26,0,0,1-5.82,3.28,24,24,0,0,1-5.41,1.49l6.79,16.88-2.37.9L147,197.35a32.35,32.35,0,0,1-4.08,1.72,34.74,34.74,0,0,1-5.27,1.41,36.32,36.32,0,0,1-5.4.63,31.55,31.55,0,0,1-5.41-.18,31.41,31.41,0,0,0,5.4,0,36.57,36.57,0,0,0,5.32-.83,33.5,33.5,0,0,0,5.13-1.59,30.89,30.89,0,0,0,4-1.9l-2.43-6.66Z"/><path class="cls-1" d="M445,296.43a19.35,19.35,0,0,1-5-14,26.59,26.59,0,0,1,6.91-16l.35-.39c0,1.1.11,2.19.17,3.28.32,5,.82,10.25,3.05,14.61a48.05,48.05,0,0,1,2.33-23,42,42,0,0,1,11.45-6.12,27.29,27.29,0,0,0-1.57,2.86c-3.14,6.54-3.33,14-2.34,21.28a96,96,0,0,1,11-25.94,40.36,40.36,0,0,1,10.24-.33,27.12,27.12,0,0,1-3,2.47c-2.05,1.43-4.41,2.52-6,4.45-2.16,2.61-2.51,6.24-2.67,9.62-.07,1.73-.11,3.46-.13,5.2.77-2,1.58-4.06,2.45-6.05a36.68,36.68,0,0,1,2.6-5.21c2.58-4.11,6.43-7.19,10.49-9.94a37.11,37.11,0,0,1,6.22,1.81,50,50,0,0,0-10.2,15.14,78.56,78.56,0,0,1,13.46-13.69,36.13,36.13,0,0,1,5,3A37.09,37.09,0,0,0,489,273.57a48.76,48.76,0,0,1,14.3-11.31,43.93,43.93,0,0,1,3.25,3.15,22.39,22.39,0,0,0-3.1,3,23.66,23.66,0,0,0-2.14,3,35.94,35.94,0,0,1,7.09-3.95,49.49,49.49,0,0,1,3.47,4.57Z"/><path class="cls-1" d="M445,296.43c-.77,2.61-.18,7.38.91,9.87a22.09,22.09,0,0,0,5.19,7.46c4.39,4,10.45,5.8,16.4,6.4a31,31,0,0,1-4.85-7.15,59.18,59.18,0,0,1-3.12-8.4c2.78,2.87,5.89,5.49,8.32,8.67.86,1.11,1.63,2.3,2.54,3.38a17.28,17.28,0,0,0,4.33,3.7,39.23,39.23,0,0,0,13.7-3,44.12,44.12,0,0,1-6.16-2.77,23.44,23.44,0,0,1-6.2-4.24,16.55,16.55,0,0,1-3.08-4.77,25.62,25.62,0,0,0,3.31,2.74c5.24,3.62,11.75,4.74,18.08,5.67a33.68,33.68,0,0,0,5.27-4.71,33.73,33.73,0,0,1-11.74-3.64,34.43,34.43,0,0,1-9-6.84c1,.53,2,1,3,1.47a64.92,64.92,0,0,0,9.81,4,50.87,50.87,0,0,0,6.34,1.29,21.42,21.42,0,0,0,3.19.32c.4,0,.81,0,1.22-.06a44.06,44.06,0,0,0,3.7-6,23.08,23.08,0,0,1-8.37-.18,25.82,25.82,0,0,1-4.89-1.72,40.61,40.61,0,0,1-9.09-5.45,33.92,33.92,0,0,0,24.53,2.5,36.37,36.37,0,0,0,1.45-4.8,26,26,0,0,1-10-.25A26.07,26.07,0,0,0,510.38,287c.29-1.84.48-3.69.64-5.57a21.26,21.26,0,0,1-6.32.07,20.47,20.47,0,0,0,6.5-2.28c.18-2.31.37-4.69.69-7.17Z"/><path class="cls-2" d="M455.4,288.45c-.06-1.33-.17-2.65-.2-4-.1-2.65-.08-5.3,0-8s.3-5.28.62-7.91a59.07,59.07,0,0,1,1.42-7.8,59.36,59.36,0,0,0-1.21,7.82c-.25,2.63-.37,5.27-.41,7.9s0,5.28.21,7.91c.06,1.31.21,2.62.31,3.94l.33,3,7.83-2.71a43.32,43.32,0,0,1-.05-5.22c.1-1.94.27-3.88.56-5.8a70.34,70.34,0,0,1,2.63-11.29,69.82,69.82,0,0,0-2.21,11.35c-.22,1.91-.32,3.84-.35,5.75a45,45,0,0,0,.22,4.93l7.48-2.59a36.1,36.1,0,0,1,.86-6.95,43.91,43.91,0,0,1,2.27-7.11,56,56,0,0,1,3.32-6.67,51.68,51.68,0,0,1,4.21-6.14,51.15,51.15,0,0,0-4.07,6.22,53.31,53.31,0,0,0-3.16,6.71,41.81,41.81,0,0,0-2.1,7.09,34.41,34.41,0,0,0-.7,6.64l7.88-2.73a34.77,34.77,0,0,1,1.74-5.76,39.58,39.58,0,0,1,2.78-5.66,47,47,0,0,1,3.52-5.2,43.13,43.13,0,0,1,4.17-4.69,43.92,43.92,0,0,0-4.05,4.78,50.07,50.07,0,0,0-3.37,5.27,39.74,39.74,0,0,0-2.6,5.67,33.21,33.21,0,0,0-1.5,5.35l8.2-2.84a42.79,42.79,0,0,1,4.59-6.71,40.74,40.74,0,0,1,5.84-5.83,41.57,41.57,0,0,0-5.68,6,43.55,43.55,0,0,0-4.16,6.37l14.35-5L486,281.82a27.13,27.13,0,0,0,4.21,1.93c.81.33,1.67.55,2.5.81s1.71.42,2.58.56a32.86,32.86,0,0,0,5.24.51,29.06,29.06,0,0,0,5.27-.35,30,30,0,0,1-5.27.46,32.31,32.31,0,0,1-5.28-.42c-.88-.11-1.73-.33-2.6-.51s-1.72-.44-2.55-.76a28.24,28.24,0,0,1-4.61-2L478,284.88a36.85,36.85,0,0,0,5.58,3.68,35.93,35.93,0,0,0,6.87,2.85,37,37,0,0,0,7.31,1.47,32.74,32.74,0,0,0,7.47,0,32.83,32.83,0,0,1-7.48.19,37.8,37.8,0,0,1-7.39-1.32,36.58,36.58,0,0,1-7-2.74,38.54,38.54,0,0,1-6-3.84l-6.84,2.62.88.9.73.75.79.7,1.57,1.38,1.67,1.28a48.47,48.47,0,0,0,7.13,4.43,60.17,60.17,0,0,0,7.75,3.31,54.79,54.79,0,0,0,8.16,2.16,54,54,0,0,1-8.22-2,58.08,58.08,0,0,1-7.87-3.13,48.39,48.39,0,0,1-7.32-4.3L474.05,292l-1.63-1.37-.82-.69-.76-.74-1.17-1.15-4.14,1.59a41.09,41.09,0,0,0,3.94,5.59,50.15,50.15,0,0,0,5.33,5.48,61.21,61.21,0,0,0,6,4.73,55.73,55.73,0,0,0,6.6,3.93,56.55,56.55,0,0,1-6.71-3.75,61.66,61.66,0,0,1-6.2-4.59,50.25,50.25,0,0,1-5.53-5.39,42.42,42.42,0,0,1-4.25-5.7L460,291.79c.37.89.74,1.78,1.15,2.67.53,1.11,1,2.24,1.61,3.33,1.1,2.22,2.37,4.34,3.68,6.44a73,73,0,0,0,4.33,6,48.16,48.16,0,0,0,5,5.47,48.39,48.39,0,0,1-5.18-5.34,70.39,70.39,0,0,1-4.52-5.94c-1.37-2.07-2.72-4.17-3.89-6.37-.62-1.08-1.15-2.21-1.72-3.32-.44-.89-.84-1.79-1.25-2.69l-9.71,3.72a22.83,22.83,0,0,0,1.21,5.51,32.78,32.78,0,0,0,2.94,5.86,45.71,45.71,0,0,0,8.75,9.88,46.6,46.6,0,0,1-9.1-9.64,34.07,34.07,0,0,1-3.19-5.88,23.42,23.42,0,0,1-1.39-5.43l-17,6.5-.87-2.38,17.32-6a31.68,31.68,0,0,1-1.66-4.1,34.68,34.68,0,0,1-1.32-5.29,36.46,36.46,0,0,1-.54-5.41A31.55,31.55,0,0,1,445,274a31.43,31.43,0,0,0-.06,5.4,36.88,36.88,0,0,0,.74,5.34,34.15,34.15,0,0,0,1.51,5.15A29.63,29.63,0,0,0,449,294l6.7-2.32Z"/><ellipse class="cls-1" cx="324.96" cy="334.56" rx="138.57" ry="80" transform="matrix(1, -0.01, 0.01, 1, -1.81, 1.77)"/><ellipse class="cls-1" cx="184.43" cy="278.98" rx="138.57" ry="80" transform="translate(-1.51 1) rotate(-0.31)"/><path class="cls-1" d="M313.4,84.46h0a32.25,32.25,0,0,1,4.84-1.91l.27-.07q.66-.2,1.35-.36l.45-.11,1.2-.25.54-.09c.39-.07.77-.12,1.16-.17l.58-.08,1.21-.1.53,0c.58,0,1.16-.06,1.75-.06h0a31.25,31.25,0,0,1,17.54,5.36,31.67,31.67,0,0,1,6.67,6.06c.32.39.63.78.93,1.19.6.8,1.16,1.64,1.69,2.5.26.43.51.87.75,1.31.32.59.61,1.18.89,1.79s.58,1.31.84,2a31.17,31.17,0,0,1,2.06,11.19c0,.49,0,1,0,1.47,0,.16,0,.31,0,.47,0,.34,0,.67-.07,1l-.06.54c0,.31-.07.63-.12,1,0,.17,0,.33-.07.5-.06.39-.13.77-.21,1.16,0,.12,0,.25-.07.37-.09.41-.18.82-.28,1.22-.05.19-.1.38-.16.57l-.21.78c-.07.21-.13.42-.2.63l-.24.69c-.07.21-.15.43-.23.65s-.17.43-.26.65c-.16.41-.33.82-.51,1.22-.08.18-.16.36-.25.53s-.23.49-.36.73l-.24.48c-.13.25-.26.49-.4.73s-.16.29-.25.43-.29.5-.44.74a3.28,3.28,0,0,1-.2.31c-.38.59-.77,1.18-1.19,1.74h0A31.37,31.37,0,1,1,313.4,84.46Z"/><path class="cls-1" d="M406.14,74.27h0a42.9,42.9,0,0,1,6.6-2.6l.36-.1c.61-.18,1.22-.34,1.84-.49l.61-.15c.55-.12,1.09-.23,1.64-.33l.74-.14,1.57-.23.79-.1c.55-.06,1.1-.1,1.66-.14l.71-.06c.79,0,1.58-.07,2.38-.07a42.74,42.74,0,0,1,42.74,42.74c0,.67,0,1.34,0,2,0,.21,0,.42,0,.64,0,.45-.06.91-.11,1.36,0,.24,0,.48-.07.72-.05.44-.1.87-.16,1.3,0,.23-.07.46-.1.69-.09.53-.18,1.05-.28,1.57,0,.17-.07.34-.11.51-.11.56-.24,1.11-.38,1.66-.06.26-.14.52-.21.78s-.19.71-.3,1-.17.58-.27.87-.2.62-.31.93-.21.6-.32.89-.23.59-.35.88c-.23.58-.47,1.14-.72,1.7-.11.23-.21.47-.32.7s-.32.66-.49,1l-.33.64c-.18.34-.36.67-.55,1s-.22.39-.33.58-.4.68-.61,1c-.08.14-.17.28-.26.41a42.73,42.73,0,1,1-55-61.23Z"/><path class="cls-1" d="M354.77,2.31l.46-.13c.77-.23,1.56-.44,2.34-.63l.79-.18c.69-.16,1.39-.3,2.09-.43l.95-.17q1-.17,2-.3l1-.13c.7-.07,1.41-.13,2.11-.18l.92-.07c1-.06,2-.09,3-.09h0a54.32,54.32,0,0,1,28.29,7.9c.75.46,1.49.93,2.22,1.42A54.56,54.56,0,0,1,425,54.56c0,.87,0,1.72-.06,2.57,0,.27,0,.55-.05.82,0,.58-.08,1.16-.13,1.74,0,.31-.06.62-.1.92-.06.56-.13,1.11-.21,1.66l-.12.88c-.11.67-.23,1.34-.36,2,0,.22-.09.44-.13.66-.15.71-.31,1.42-.49,2.11-.08.34-.18.67-.27,1s-.25.9-.38,1.35-.23.73-.34,1.1-.27.8-.41,1.19-.26.76-.4,1.13-.29.75-.44,1.13c-.3.73-.61,1.46-.93,2.18-.14.29-.26.59-.4.88l-.63,1.27-.43.83c-.22.43-.45.85-.69,1.27-.14.25-.28.5-.43.74-.25.44-.51.87-.77,1.3l-.33.52a54.56,54.56,0,1,1-61.77-81.5Z"/><polygon class="cls-2" points="327.28 115.62 368.13 137.71 370.48 70.3 373.3 151.08 422.85 112.6 373.54 158.14 375.61 217.59 365.35 217.59 367.91 144.08 327.28 115.62"/><ellipse class="cls-1" cx="205.76" cy="371.32" rx="138.57" ry="80" transform="matrix(1, -0.01, 0.01, 1, -2.01, 1.12)"/><ellipse class="cls-1" cx="107.77" cy="390.64" rx="79.1" ry="45.67" transform="translate(-2.12 0.59) rotate(-0.31)"/><path class="cls-1" d="M42.18,340.42c1.37,2.23,2.75,4.48,4.22,6.65.4.58,1,1.06,1,1.67-.06.8-1.33,1.95-1.81,2.59-.63.82-1.75,2.75-2.66,3.24,1.15-.62,3.56-2.3,5.18-2.27A29.15,29.15,0,0,1,47,355.54a7,7,0,0,1,3-1.47c-.2,1,.41,2.35.63,3.37,1.08,5.08,1.79,11.2-.5,16.06-2.48,5.27-9.5,4.45-14.25,3.28a20.52,20.52,0,0,1-6.8-3c-.72-.51-3.15-3.1-4.22-2.31a23.49,23.49,0,0,0,.81-3c-.67.47-1.67.32-2.17.95-1.12-.85-1.82-2.25-3.13-2.9,1-1.09,1.33-3,2.28-4.17a14,14,0,0,0-3.94,1,11.73,11.73,0,0,0-1.5-2.31,65.77,65.77,0,0,1-5.94-10,61.8,61.8,0,0,0-3.57-6,30,30,0,0,0,2.8-3.23c1.2-1.29,2.45-2.53,3.64-3.81a6,6,0,0,0-2,.54c-2.17.62-4.49,1.19-6.7,1.66-.1-.87-4.27-8.74-3.85-9a28.84,28.84,0,0,0,4.18-2.65,20,20,0,0,1-4.38,0c.7-1.55,3.75-3,4.94-4.28-1.09-.32-2.3.23-3.4.32-.78.06-1.6-.16-2.24.28a57.42,57.42,0,0,1-.42-7.06c-.06-1.52-.6-4.16,0-5.56.41-1,2.05-1.52,2.45-2.41a3.94,3.94,0,0,0-2-.16c0-.55.43-8.3.92-8.23,4.73.67,9.16,1.49,13.35,3.86.79.44,1.73.74,2,1.51.46,1.59-.75,3.86-.89,5.42,1.33-1.47,3.33-2.5,4.88-3.77a26.06,26.06,0,0,1,4.64,4.85c1.15,1.67,2.55,3.28,3.56,5a12.14,12.14,0,0,1,1.43,2.41c.36,1.79-3.24,5.6-4.46,7,1.91-.15,3.78-1.95,5.84-2.24s2.21,2,3.48,2.77c-.84.09-1.85,1.53-2.33,2.19.95,0,1.93-.71,2.85-.39a23,23,0,0,1-3,5.08c1.2,0,2.34-.9,3.54-1.17.58-.12,1.19-.11,1.73-.28a48.15,48.15,0,0,0,3.74,6.3Z"/><path class="cls-2" d="M5.05,307.21c2.66,2.49,4.09,7,5.58,10.28,1.63,3.54,3.16,7.12,4.79,10.65a126.28,126.28,0,0,0,10.41,19c8.38,12.15,16.07,25.3,26.29,36,.69.73,2-.34,1.39-1.15-9.52-11.85-18.76-23.77-27.4-36.29-4.43-6.39-7.76-13.4-11-20.43-2.92-6.26-5.67-12.91-9.35-18.77-.34-.53-1.2.17-.66.68Z"/><path class="cls-1" d="M261.1,471.73c30.79,17.78,80.88,17.69,111.86-.2s31.15-46.81.35-64.59-80.87-17.68-111.86.21S230.31,454,261.1,471.73Z"/><path class="cls-1" d="M99.92,461.26c6.8,3.92,17.86,3.9,24.71-.05s6.87-10.33.07-14.26S106.84,443,100,447,93.12,457.33,99.92,461.26Z"/><path class="cls-1" d="M471.93,350c4.78,2.77,12.57,2.75,17.39,0s4.84-7.27.05-10-12.57-2.75-17.39,0S467.14,347.25,471.93,350Z"/><path class="cls-1" d="M32.76,316.24a12,12,0,0,0,10.84,0c3-1.73,3-4.53,0-6.26a12,12,0,0,0-10.84,0C29.79,311.72,29.78,314.52,32.76,316.24Z"/><path class="cls-3" d="M426.1,310.94s-11,12.87-14,13.73-.29,3.89,2,4.12,9.42-.07,11.51-2.13,8-4.25,8-4.25a33.19,33.19,0,0,0-1.6-10.86Z"/><path class="cls-3" d="M422.24,220s-1.43,28.48-.9,37.81,2.79,55.7,2.79,55.7c6,1.29,9.87,0,9.87,0,2-35.55,1.92-45.77,2.49-51.07s1.27-20.62,1.27-20.62c4.25-8.8-.19-20.25-2.29-23S422.24,220,422.24,220Z"/><path class="cls-3" d="M444.11,323.16c-.37,5.2-2.26,11.34-2.73,14.45a7.4,7.4,0,0,0,1.36,5.9c.72,1,9.52-1.91,10.73-5.3s-1.27-6.36-1.46-12.72C449.17,320.4,444.11,323.16,444.11,323.16Z"/><path class="cls-4" d="M431.39,222.25s1.52,25.92,3.91,34.55,4.53,34,5.55,38.37,2.26,31.7,2.26,31.7a19.38,19.38,0,0,0,9.78,0c-.12-25.55.5-46.31,0-53.32s.2-27.77.2-27.77c2.27-9.67,2.4-10.9,0-17.32S440.36,217,431.39,222.25Z"/><path class="cls-5" d="M426.4,160.73c-8.95,2.52-13.75,25-16.26,30.05s-23.39,6.31-23.39,6.31c-1.25,4.38,2.3,9,2.3,9,20.12-.84,27.21-2.51,30.94-10.45S436.81,163.44,426.4,160.73Z"/><path class="cls-6" d="M426.4,160.73c8-.35,26.37,3.78,32.43,11.52s-2.74,21.41-4.85,29.65,1,28.92,1,30.9c-9.41,6.25-32.09,7-34.63-2.27-1.05-10.14,1.27-22.17,1.39-28.09C421.41,189.7,415.88,164.5,426.4,160.73Z"/><path class="cls-7" d="M433.22,162.62c-5.11,18-6.32,38.12-5.82,45.75s.71,32.27.71,32.27c-6-3.14-8.57-8.88-8.57-11.49s2.24-24.92,2.17-26.71-3-22.27-2.17-31.46,6.86-10.25,6.86-10.25h7.66Z"/><path class="cls-8" d="M428.29,140.94c-3.5,1.1,0,9.06,0,9.06Z"/><path class="cls-9" d="M428.11,142a24.36,24.36,0,0,0-.82,8.27c.49,3.62.82,10.83,4,13.14s7.8-.37,10.85-3a18.12,18.12,0,0,0,6.34-13.13c.08-5.77-2.18-12.83-10.5-12.47S428.11,142,428.11,142Z"/><path class="cls-9" d="M444.26,155.33s-.65,7.42,1.3,10.16c.14,1.83-5.1,9.58-10.31,8.22-3-.78-2.68-4.32-2.68-4.32a82,82,0,0,0,0-9.23Z"/><path class="cls-3" d="M426.07,135.77c-1.19,4.27.16,5.81,3.77,7S443,141.25,443,141.25c-.64,4.58.8,7,.8,7,1.58-4.5,3-2.21,3.17,1.39s-1.87,3.51-1.87,3.51c.14,3,1.11,4.06,1.11,4.06,3.86-2.66,9.11-20.49,2.16-20.9C448.3,130.05,428.6,126.61,426.07,135.77Z"/><path class="cls-7" d="M445.88,164.31c-6.18,13-9.42,24.94-9.21,35.7s2.43,42.09,2.43,42.09c10.73-2.61,18-5.64,20.13-9.3-4.6-12.11-6.27-20.26-5.33-23.7s9.05-29.72,4.84-37.53C454.74,167.22,445.88,164.31,445.88,164.31Z"/><path class="cls-10" d="M455.24,171.35c-7.39,3.68-13.27,24.07-18.9,29.54-3.2,3.1-19,7.14-23.37,7.25-1.7,3.87,1.35,8.18,1.35,8.18,26.95-2.53,28.14-4,36.43-14.59C461,188.6,465.15,168.82,455.24,171.35Z"/><path class="cls-11" d="M432.7,164.08c2.24.86,5.53-.49,9.79-3.92,0,0-1.26,5-9.79,6.84Z"/><path class="cls-6" d="M444.5,162.57a14.68,14.68,0,0,0,1.38,1.74s-2.68,5.86-3.65,8.45a13.62,13.62,0,0,1-3.51,4.75l-3.47-3.8C440,171.18,444.5,162.57,444.5,162.57Z"/><path class="cls-6" d="M433,164.44c.32-.39,1.08,7.32,2.24,9.27a14.06,14.06,0,0,1-3.56,2.66S430.37,167.74,433,164.44Z"/><path class="cls-3" d="M196.53,244.49c.27,3.85.62,7.71.62,7.71H198s0-5.83.91-4.61C198.8,244.42,196.53,244.49,196.53,244.49Z"/><path class="cls-9" d="M208.43,251.06c.41,0,1-.45,1.46-1.13-.87-1-1.74-2.06-2.32-2.87-1.85-2.57-4.85-8.28-5-10.85s1.42-29.39,1.85-32.67,1.66-15.7,1.54-16.41-11.53,4.41-11.53,4.41c.15,1,1.69,7.43,1.06,11.57s-1.63,6.87-1.06,13.64,3.86,17.61,2.71,22.75c0,.09,0,.17-.05.26C200.46,244.36,201.64,253.32,208.43,251.06Z"/><path class="cls-3" d="M209.89,249.93c-.49.68-1,1.13-1.46,1.13-6.79,2.26-8-6.7-11.33-11.3-1.07,4.88-.59,5.46.29,6.16s4.05,4.56,4.62,7.28,9.13,2.42,10.7,1.85C213.79,254.66,211.83,252.24,209.89,249.93Z"/><path class="cls-9" d="M184.83,214.66c-.33,3-2.09,26.12-1.8,30,.17,2.35,1.29,6.05,2,9,.45,1.88.71,3.48.45,4.24-.69,2-.72,7.86-3.9,6.53s-5.31-5.42-4.66-10-.13-6.71,0-9.42-1.63-19.55-1.91-25.53,1.71-8.86,1.86-12.86a102.17,102.17,0,0,0-1.06-12.33s13.75-7.21,12.62,1.49S185.16,211.67,184.83,214.66Z"/><path class="cls-3" d="M186,258.12c-.21,4-1.28,7.64-4.46,6.31s-5.31-5.42-4.66-10c1.71,5,8.25,4.78,8.11-.82A26.79,26.79,0,0,1,186,258.12Z"/><path class="cls-12" d="M206.9,158.46s0,27.87,0,37-2.37,40-2.37,40a12.65,12.65,0,0,1-9.2-.43c-.67-8-3-21.06-3.4-28s2.73-8,1.43-13.07-4.84-32-4.84-32Z"/><path class="cls-12" d="M191.94,164.33s-2.38,29.92-3.41,33.72-1.75,18.41-2.5,23.45S185.2,241,185.2,241c-1.82,5.92-9.32.91-9.32.91-3.13-18.54-1-27.76-.87-33.2s-2.56-19.66-2-25.57,1.18-18.19.05-20.48-2.45-6.07-2.87-12.9c8.85-3.36,22.75.42,22.75.42Z"/><path class="cls-6" d="M205.56,99.18c-7.84-.39-21.15,8.89-27.17,16.49s-2.3,15.85-.27,24S177,168.2,177,170.16c9.26,6.21,26.57,7,29.13-2.19,1.09-10-1.15-20.41-1.24-26.26C205.26,129.15,215.93,103,205.56,99.18Z"/><path class="cls-13" d="M198.72,101c4.08,17.73,2.8,36.88,1.89,44.39s-1.07,32.51-1.07,32.51c6-3,8.93-8.7,9.07-11.27s-2.2-24.25-2-26,3.24-18.51,2.92-27.57-3.74-10.44-3.74-10.44L198,99.14Z"/><path class="cls-13" d="M187.37,102.87c6,12.9,3.13,24.73,2.86,35.34s-5.77,40.43-5.77,40.43c-10.57-2.64-11.83-9.72-13.87-13.34-4.88-24.82,1.28-45,5.86-52.44C180.05,107,187.37,102.87,187.37,102.87Z"/><path class="cls-14" d="M229.9,143a5.87,5.87,0,0,1-5.32,0c-1.48-.85-1.48-2.23,0-3.07a5.87,5.87,0,0,1,5.32,0C231.36,140.79,231.36,142.17,229.9,143Z"/><path class="cls-13" d="M180.7,113c7.31,3.59,8,25.12,13.59,30.48,3.18,3,15.87.62,20.2.7,1.69,3.81-.61,8.43-.61,8.43-24.18,1.18-27.08,1.92-33.23-9.83C175.85,133.65,170.91,110.59,180.7,113Z"/><path class="cls-13" d="M205.76,102.61c4.69,2.45,6.91,22,12.5,27,3.17,2.78,4.58,5.32,11,8.54,1.7,3.49-2.91,5.66-2.91,5.66-12.88-4.88-15.83-9.08-20.13-15.58C200.92,120.12,196,100.38,205.76,102.61Z"/><path class="cls-9" d="M226.65,143.05a23.58,23.58,0,0,0,2.53,3.07c1.11,1.27,2.89,3.45,3.44,2.91s-.51-2.7-.51-2.7a36.78,36.78,0,0,1,3.9,4.19c.6,1.06.26-2-.59-3.39,2.12,3.22,2.62,3.94,2.79,3.14s-1.58-5.17-1.34-4.75c2.45,3.69,3.38,4.2,3.12,2.5s-2.62-4.57-4.06-5.38c4.23,2.76,4.53,2.46,3.47,1.23a18.28,18.28,0,0,0-10.22-5C225.84,142.05,226.65,143.05,226.65,143.05Z"/><path class="cls-9" d="M229.47,149.82c-1.38-2.13-3.36-4.56-5.9-5.26a9.59,9.59,0,0,0-5.39.45,46.38,46.38,0,0,0-4.76,1.27,12.07,12.07,0,0,0-1,4.51,4.89,4.89,0,0,0,.93.21,33.86,33.86,0,0,0,4.45.65,17.51,17.51,0,0,0,3.47,0c-.37.11-.81.29-.86.67a.67.67,0,0,0,.54.69c2.16.57,4.06-2.07,5.39-3.29C226.24,149.85,231.25,152.57,229.47,149.82Z"/><path class="cls-15" d="M206.75,81.11a4,4,0,0,1,.29.66c.39,1.16.12,2.56.4,3.77.45,1.93,1.82,3.45,2.47,5.32,2.37,6.85-4.44,10.69-10.35,10.19a5.6,5.6,0,0,1-3-1c-2.86-2.21.37-5.69,1.72-7.73.94-1.42,2.27-3.33,2.38-5.09s-.77-3.06-.44-4.82A3.52,3.52,0,0,1,206.75,81.11Z"/><path class="cls-9" d="M189.13,95s1.94,6.75-2.5,9.57c-.14,1.63,4.52,8.6,9.2,7.42,2.73-.7,4.13-4.59,4.13-4.59a75.31,75.31,0,0,0-1.67-7.56Z"/><path class="cls-9" d="M204.91,81.29a22.29,22.29,0,0,1,.75,7.58c-.45,3.32-.75,9.93-3.69,12s-7.16-.34-9.95-2.71a16.56,16.56,0,0,1-5.81-12c-.07-5.29,2-11.77,9.62-11.43S204.91,81.29,204.91,81.29Z"/><path class="cls-15" d="M199.57,78.06c2,2.41,1,5.37-1.4,7.15-1.68,1.23-3.16,2-4.28,3.9a12.81,12.81,0,0,0-1.71,5.81c-.09,1.69-.1,3.36-.19,5,0,.78-.08,1.85-.91,2.06-1,.25-2.93-.47-3.8-1a14,14,0,0,1-3.66-3.15,14.58,14.58,0,0,1-3.44-8.7c-.21-5.89,3.16-9.71,7.44-13.14S196.07,73.77,199.57,78.06Z"/><path class="cls-15" d="M202.17,75.1l0,0c-1.48-1-7.53-2.88-7.55.21s4.49,6.16,6.88,7.53a25.36,25.36,0,0,1,3.11,1.83c1.24,1,1.35,2.81,2.45,3.65,1.67-1.61,1.24-5.58.57-7.56C206.69,78.1,204.38,76.6,202.17,75.1Z"/><path class="cls-11" d="M198.78,101.68c-3.12-.26-6.52-3.28-6.52-3.28s.71,3.62,6.91,4.92Z"/><path class="cls-16" d="M110.12,283.62c3,4.68,2.31,8,1.46,8.38-17.86,7.95-29,5.53-31.68,4.61,2.95-4.12,5.75-8.08,9.08-12.58C97.73,285.64,110.12,283.62,110.12,283.62Z"/><g class="cls-17"><polygon class="cls-18" points="161.93 156.55 161.98 176.24 197.73 197.02 197.68 177.33 161.93 156.55"/><polygon class="cls-19" points="322.75 177.33 322.81 197.02 358.79 176.25 358.73 156.56 322.75 177.33"/><path class="cls-20" d="M229.88,204.7l0-19.69c0-2.78-1.84-5.56-5.49-7.68-7.33-4.26-19.28-4.26-26.67,0l.06,19.69c7.38-4.26,19.34-4.26,26.67,0C228.05,199.14,229.88,201.92,229.88,204.7Z"/><path class="cls-18" d="M290.5,185.11l.06,19.69c0-2.81,1.85-5.63,5.57-7.78,7.39-4.27,19.33-4.26,26.68,0l-.06-19.69c-7.34-4.26-19.28-4.27-26.68,0C292.35,179.48,290.5,182.3,290.5,185.11Z"/><polygon class="cls-19" points="260.01 213.56 260.07 233.25 296.04 212.48 295.99 192.79 260.01 213.56"/><polygon class="cls-18" points="224.27 192.78 224.32 212.47 260.07 233.25 260.01 213.56 224.27 192.78"/><path class="cls-2" d="M161.93,156.55l35.74,20.78c7.39-4.26,19.34-4.26,26.67,0s7.31,11.19-.07,15.45L260,213.56l36-20.77c-7.35-4.27-7.31-11.19.08-15.46s19.34-4.26,26.68,0l36-20.77-98.08-57Z"/></g><g class="cls-17"><path class="cls-21" d="M320.26,202.4l.05,19.69c0,2.78,1.84,5.56,5.48,7.68l-.05-19.69C322.09,208,320.26,205.18,320.26,202.4Z"/><polygon class="cls-21" points="289.77 230.85 289.82 250.54 325.56 271.31 325.51 251.62 289.77 230.85"/><path class="cls-22" d="M357.72,279l-.06-19.69c0-2.78-1.83-5.55-5.47-7.67-7.35-4.27-19.3-4.27-26.68,0l.05,19.69c7.38-4.27,19.34-4.27,26.68,0C355.89,273.43,357.71,276.2,357.72,279Z"/><polygon class="cls-21" points="352.1 267.07 352.15 286.76 387.9 307.53 387.85 287.84 352.1 267.07"/><polygon class="cls-23" points="387.85 287.84 387.9 307.53 486.62 250.54 486.56 230.85 387.85 287.84"/><path class="cls-24" d="M325.83,194.62c-7.4,4.27-7.44,11.19-.09,15.46l-36,20.77,35.74,20.77c7.38-4.27,19.33-4.27,26.68,0s7.29,11.19-.09,15.45l35.75,20.77,98.72-57-98.08-57-36,20.77C345.16,190.36,333.22,190.35,325.83,194.62Z"/></g><g class="cls-17"><path class="cls-25" d="M199.94,222l-.05-19.69c0,2.81-1.85,5.63-5.57,7.77l.06,19.69C198.09,227.62,200,224.8,199.94,222Z"/><polygon class="cls-25" points="194.09 251.62 194.14 271.31 230.12 250.54 230.07 230.85 194.09 251.62"/><path class="cls-26" d="M161.83,259.4l.06,19.69c0-2.82,1.85-5.64,5.56-7.78,7.4-4.27,19.35-4.27,26.69,0l0-19.69c-7.35-4.27-19.3-4.27-26.69,0C163.68,253.76,161.83,256.58,161.83,259.4Z"/><polygon class="cls-25" points="131.34 287.85 131.39 307.54 167.38 286.76 167.32 267.07 131.34 287.85"/><polygon class="cls-26" points="33.25 230.85 33.31 250.53 131.39 307.54 131.34 287.85 33.25 230.85"/><path class="cls-27" d="M33.25,230.85l98.09,57,36-20.78c-7.35-4.26-7.31-11.19.08-15.45s19.34-4.27,26.69,0l36-20.77-35.75-20.78c7.39-4.27,7.42-11.18.08-15.45s-19.28-4.27-26.67,0L132,173.84Z"/></g><g class="cls-17"><path class="cls-28" d="M191.59,276.69l0,19.69c0,2.78,1.84,5.55,5.49,7.67l-.06-19.69C193.42,282.24,191.6,279.47,191.59,276.69Z"/><path class="cls-29" d="M327.78,296.27l-.06-19.69c0,2.81-1.85,5.63-5.57,7.78l.06,19.69C325.93,301.9,327.78,299.08,327.78,296.27Z"/><path class="cls-30" d="M294.37,369s-1,.33-3.23,1.28-7.16,1.27-10.21.79-7.25-1.17-6.44-2.29,16.16-4.95,16.81-4.65S294.37,369,294.37,369Z"/><polygon class="cls-29" points="259.17 362.13 259.23 381.82 357.95 324.82 357.9 305.13 259.17 362.13"/><polygon class="cls-28" points="161.09 305.14 161.15 324.83 259.23 381.82 259.17 362.13 161.09 305.14"/><path class="cls-31" d="M197.15,268.91c-7.38,4.26-7.42,11.19-.08,15.45l-36,20.78,98.08,57,98.73-57-35.75-20.77c7.39-4.27,7.43-11.18.09-15.45s-19.29-4.27-26.68,0l-35.74-20.77-36,20.77C216.49,264.64,204.54,264.64,197.15,268.91Z"/></g><g class="cls-17"><path class="cls-32" d="M259,301v2c0,1.62,1.07,3.23,3.19,4.47,4.27,2.48,11.23,2.48,15.54,0,2.16-1.25,3.24-2.89,3.24-4.53v-2c0,1.63-1.07,3.28-3.24,4.52-4.31,2.49-11.26,2.49-15.53,0C260,304.18,259,302.56,259,301Z"/><path class="cls-33" d="M262.21,296.41c-4.31,2.49-4.33,6.52-.06,9s11.22,2.48,15.53,0,4.32-6.51.05-9S266.51,293.93,262.21,296.41Z"/></g><path class="cls-33" d="M244,234.34a2.52,2.52,0,0,1,2.53.25l54.78,31.63a7.83,7.83,0,0,1,3.56,6.16l-.09,40.95a2.48,2.48,0,0,1-1,2.28l-3.54,2.06a2.48,2.48,0,0,0,1-2.28l.09-40.95a7.87,7.87,0,0,0-3.56-6.17L243,236.65a2.5,2.5,0,0,0-2.53-.25Z"/><path class="cls-32" d="M243,236.65c-2-1.14-3.57-.22-3.57,2l-.09,40.95a7.85,7.85,0,0,0,3.55,6.15l54.78,31.63c2,1.14,3.57.22,3.58-2l.09-40.95a7.87,7.87,0,0,0-3.56-6.17Z"/><line class="cls-34" x1="298.85" y1="274.43" x2="298.85" y2="274.42"/><polygon class="cls-35" points="241.95 246.81 241.97 238.94 243.49 239.82 246.8 241.73 290.9 267.19 298.85 271.78 298.85 274.42 298.85 274.43 298.81 293.88 298.78 310.11 263.87 289.95 258.44 286.81 241.89 277.26 241.95 246.81"/><polygon class="cls-27" points="290.9 267.19 298.79 271.74 298.78 274.23 241.97 241.42 241.97 238.94 290.9 267.19"/><path class="cls-27" d="M292.16,277.37a4,4,0,0,0,1.79,3.1c1,.58,1.8.11,1.8-1a4,4,0,0,0-1.8-3.11C293,275.76,292.16,276.22,292.16,277.37Z"/><path class="cls-24" d="M292.16,283.68a4,4,0,0,0,1.79,3.11c1,.57,1.8.11,1.8-1a4,4,0,0,0-1.8-3.11C293,282.07,292.16,282.53,292.16,283.68Z"/><path class="cls-31" d="M292.16,289.92A4,4,0,0,0,294,293c1,.57,1.8.11,1.8-1a4,4,0,0,0-1.8-3.11C293,288.32,292.16,288.78,292.16,289.92Z"/><path class="cls-24" d="M292.4,310.74a2.84,2.84,0,0,0,1.28,2.23c.71.41,1.29.08,1.29-.74a2.85,2.85,0,0,0-1.29-2.23C293,309.59,292.4,309.92,292.4,310.74Z"/><polygon class="cls-16" points="219.58 312.33 237.12 302.2 213.77 288.72 196.23 298.85 219.58 312.33"/><polygon class="cls-36" points="219.58 313.1 219.58 312.33 196.23 298.85 196.23 299.62 219.58 313.1"/><polygon class="cls-36" points="219.58 312.33 219.58 313.1 237.12 302.97 237.12 302.2 219.58 312.33"/><polygon class="cls-37" points="282.14 324.61 282.14 326.12 265.01 336.07 265.02 334.56 282.14 324.61"/><polygon class="cls-32" points="265.02 334.56 265.01 336.07 227.1 314.19 227.11 312.68 265.02 334.56"/><polygon class="cls-33" points="282.14 324.61 265.02 334.56 227.11 312.68 244.24 302.73 282.14 324.61"/><g class="cls-17"><polygon class="cls-37" points="246.55 305.23 246.55 305.98 244.18 307.36 244.18 306.61 246.55 305.23"/><polygon class="cls-32" points="244.18 306.61 244.18 307.36 241.84 306.01 241.84 305.26 244.18 306.61"/><polygon class="cls-33" points="246.55 305.23 244.18 306.61 241.84 305.26 244.21 303.88 246.55 305.23"/></g><g class="cls-17"><polygon class="cls-37" points="249.55 306.96 249.55 307.71 247.18 309.09 247.18 308.34 249.55 306.96"/><polygon class="cls-32" points="247.18 308.34 247.18 309.09 244.84 307.74 244.84 306.99 247.18 308.34"/><polygon class="cls-33" points="249.55 306.96 247.18 308.34 244.84 306.99 247.21 305.61 249.55 306.96"/></g><g class="cls-17"><polygon class="cls-37" points="252.54 308.69 252.54 309.44 250.17 310.82 250.17 310.07 252.54 308.69"/><polygon class="cls-32" points="250.17 310.07 250.17 310.82 247.83 309.47 247.84 308.72 250.17 310.07"/><polygon class="cls-33" points="252.54 308.69 250.17 310.07 247.84 308.72 250.21 307.34 252.54 308.69"/></g><g class="cls-17"><polygon class="cls-37" points="255.54 310.42 255.53 311.17 253.16 312.55 253.17 311.8 255.54 310.42"/><polygon class="cls-32" points="253.17 311.8 253.16 312.55 250.83 311.2 250.83 310.44 253.17 311.8"/><polygon class="cls-33" points="255.54 310.42 253.17 311.8 250.83 310.44 253.2 309.07 255.54 310.42"/></g><g class="cls-17"><polygon class="cls-37" points="258.54 312.15 258.53 312.9 256.16 314.28 256.17 313.53 258.54 312.15"/><polygon class="cls-32" points="256.17 313.53 256.16 314.28 253.82 312.93 253.83 312.18 256.17 313.53"/><polygon class="cls-33" points="258.54 312.15 256.17 313.53 253.83 312.18 256.2 310.8 258.54 312.15"/></g><g class="cls-17"><polygon class="cls-37" points="261.53 313.88 261.53 314.63 259.16 316.01 259.16 315.25 261.53 313.88"/><polygon class="cls-32" points="259.16 315.25 259.16 316.01 256.82 314.66 256.82 313.9 259.16 315.25"/><polygon class="cls-33" points="261.53 313.88 259.16 315.25 256.82 313.9 259.19 312.53 261.53 313.88"/></g><g class="cls-17"><polygon class="cls-37" points="264.52 315.61 264.52 316.36 262.15 317.74 262.15 316.98 264.52 315.61"/><polygon class="cls-32" points="262.15 316.98 262.15 317.74 259.81 316.39 259.81 315.63 262.15 316.98"/><polygon class="cls-33" points="264.52 315.61 262.15 316.98 259.81 315.63 262.18 314.26 264.52 315.61"/></g><g class="cls-17"><polygon class="cls-37" points="267.52 317.34 267.52 318.09 265.15 319.47 265.15 318.71 267.52 317.34"/><polygon class="cls-32" points="265.15 318.71 265.15 319.47 262.81 318.12 262.81 317.36 265.15 318.71"/><polygon class="cls-33" points="267.52 317.34 265.15 318.71 262.81 317.36 265.18 315.98 267.52 317.34"/></g><g class="cls-17"><polygon class="cls-37" points="270.51 319.06 270.51 319.82 268.14 321.2 268.14 320.44 270.51 319.06"/><polygon class="cls-32" points="268.14 320.44 268.14 321.2 265.8 319.85 265.81 319.09 268.14 320.44"/><polygon class="cls-33" points="270.51 319.06 268.14 320.44 265.81 319.09 268.18 317.71 270.51 319.06"/></g><g class="cls-17"><polygon class="cls-37" points="273.51 320.79 273.5 321.55 271.13 322.92 271.14 322.17 273.51 320.79"/><polygon class="cls-32" points="271.14 322.17 271.13 322.92 268.8 321.57 268.8 320.82 271.14 322.17"/><polygon class="cls-33" points="273.51 320.79 271.14 322.17 268.8 320.82 271.17 319.44 273.51 320.79"/></g><g class="cls-17"><polygon class="cls-37" points="279.5 324.25 279.5 325.01 277.13 326.38 277.13 325.63 279.5 324.25"/><polygon class="cls-32" points="277.13 325.63 277.13 326.38 271.79 323.3 271.79 322.55 277.13 325.63"/><polygon class="cls-33" points="279.5 324.25 277.13 325.63 271.79 322.55 274.16 321.17 279.5 324.25"/></g><g class="cls-17"><polygon class="cls-37" points="246.53 308.72 246.53 309.47 244.16 310.85 244.16 310.09 246.53 308.72"/><polygon class="cls-32" points="244.16 310.09 244.16 310.85 238.82 307.77 238.82 307.01 244.16 310.09"/><polygon class="cls-33" points="246.53 308.72 244.16 310.09 238.82 307.01 241.19 305.63 246.53 308.72"/></g><g class="cls-17"><polygon class="cls-37" points="249.52 310.44 249.52 311.2 247.15 312.58 247.15 311.82 249.52 310.44"/><polygon class="cls-32" points="247.15 311.82 247.15 312.58 244.81 311.23 244.81 310.47 247.15 311.82"/><polygon class="cls-33" points="249.52 310.44 247.15 311.82 244.81 310.47 247.18 309.1 249.52 310.44"/></g><g class="cls-17"><polygon class="cls-37" points="252.51 312.17 252.51 312.93 250.14 314.3 250.15 313.55 252.51 312.17"/><polygon class="cls-32" points="250.15 313.55 250.14 314.3 247.81 312.95 247.81 312.2 250.15 313.55"/><polygon class="cls-33" points="252.51 312.17 250.15 313.55 247.81 312.2 250.18 310.82 252.51 312.17"/></g><g class="cls-17"><polygon class="cls-37" points="255.51 313.9 255.51 314.66 253.14 316.04 253.15 315.28 255.51 313.9"/><polygon class="cls-32" points="253.15 315.28 253.14 316.04 250.81 314.69 250.81 313.93 253.15 315.28"/><polygon class="cls-33" points="255.51 313.9 253.15 315.28 250.81 313.93 253.18 312.56 255.51 313.9"/></g><g class="cls-17"><polygon class="cls-37" points="258.51 315.63 258.51 316.39 256.14 317.76 256.14 317.01 258.51 315.63"/><polygon class="cls-32" points="256.14 317.01 256.14 317.76 253.8 316.41 253.8 315.66 256.14 317.01"/><polygon class="cls-33" points="258.51 315.63 256.14 317.01 253.8 315.66 256.17 314.28 258.51 315.63"/></g><g class="cls-17"><polygon class="cls-37" points="261.5 317.36 261.5 318.12 259.13 319.49 259.13 318.74 261.5 317.36"/><polygon class="cls-32" points="259.13 318.74 259.13 319.49 256.79 318.14 256.79 317.39 259.13 318.74"/><polygon class="cls-33" points="261.5 317.36 259.13 318.74 256.79 317.39 259.16 316.01 261.5 317.36"/></g><g class="cls-17"><polygon class="cls-37" points="264.5 319.09 264.5 319.85 262.13 321.22 262.13 320.47 264.5 319.09"/><polygon class="cls-32" points="262.13 320.47 262.13 321.22 259.78 319.87 259.79 319.12 262.13 320.47"/><polygon class="cls-33" points="264.5 319.09 262.13 320.47 259.79 319.12 262.16 317.74 264.5 319.09"/></g><g class="cls-17"><polygon class="cls-37" points="267.49 320.82 267.49 321.57 265.12 322.95 265.12 322.2 267.49 320.82"/><polygon class="cls-32" points="265.12 322.2 265.12 322.95 262.78 321.6 262.79 320.85 265.12 322.2"/><polygon class="cls-33" points="267.49 320.82 265.12 322.2 262.79 320.85 265.15 319.47 267.49 320.82"/></g><g class="cls-17"><polygon class="cls-37" points="270.49 322.55 270.48 323.3 268.12 324.68 268.12 323.93 270.49 322.55"/><polygon class="cls-32" points="268.12 323.93 268.12 324.68 265.78 323.33 265.78 322.58 268.12 323.93"/><polygon class="cls-33" points="270.49 322.55 268.12 323.93 265.78 322.58 268.15 321.2 270.49 322.55"/></g><g class="cls-17"><polygon class="cls-37" points="273.49 324.28 273.48 325.03 271.11 326.41 271.12 325.66 273.49 324.28"/><polygon class="cls-32" points="271.12 325.66 271.11 326.41 268.77 325.06 268.77 324.3 271.12 325.66"/><polygon class="cls-33" points="273.49 324.28 271.12 325.66 268.77 324.3 271.14 322.93 273.49 324.28"/></g><g class="cls-17"><polygon class="cls-37" points="276.48 326.01 276.48 326.76 274.11 328.14 274.11 327.39 276.48 326.01"/><polygon class="cls-32" points="274.11 327.39 274.11 328.14 271.77 326.79 271.77 326.04 274.11 327.39"/><polygon class="cls-33" points="276.48 326.01 274.11 327.39 271.77 326.04 274.14 324.66 276.48 326.01"/></g><g class="cls-17"><polygon class="cls-37" points="243.51 310.47 243.51 311.23 241.14 312.6 241.14 311.85 243.51 310.47"/><polygon class="cls-32" points="241.14 311.85 241.14 312.6 235.8 309.52 235.8 308.77 241.14 311.85"/><polygon class="cls-33" points="243.51 310.47 241.14 311.85 235.8 308.77 238.17 307.39 243.51 310.47"/></g><g class="cls-17"><polygon class="cls-37" points="246.5 312.2 246.5 312.95 244.13 314.33 244.13 313.58 246.5 312.2"/><polygon class="cls-32" points="244.13 313.58 244.13 314.33 241.79 312.98 241.79 312.23 244.13 313.58"/><polygon class="cls-33" points="246.5 312.2 244.13 313.58 241.79 312.23 244.16 310.85 246.5 312.2"/></g><g class="cls-17"><polygon class="cls-37" points="249.49 313.93 249.49 314.68 247.12 316.06 247.13 315.31 249.49 313.93"/><polygon class="cls-32" points="247.13 315.31 247.12 316.06 244.78 314.71 244.79 313.96 247.13 315.31"/><polygon class="cls-33" points="249.49 313.93 247.13 315.31 244.79 313.96 247.16 312.58 249.49 313.93"/></g><g class="cls-17"><polygon class="cls-37" points="252.49 315.66 252.49 316.41 250.12 317.79 250.12 317.04 252.49 315.66"/><polygon class="cls-32" points="250.12 317.04 250.12 317.79 247.78 316.44 247.79 315.69 250.12 317.04"/><polygon class="cls-33" points="252.49 315.66 250.12 317.04 247.79 315.69 250.16 314.31 252.49 315.66"/></g><g class="cls-17"><polygon class="cls-37" points="255.49 317.39 255.49 318.14 253.12 319.52 253.12 318.76 255.49 317.39"/><polygon class="cls-32" points="253.12 318.76 253.12 319.52 250.78 318.17 250.78 317.42 253.12 318.76"/><polygon class="cls-33" points="255.49 317.39 253.12 318.76 250.78 317.42 253.15 316.04 255.49 317.39"/></g><g class="cls-17"><polygon class="cls-37" points="258.48 319.12 258.48 319.87 256.11 321.25 256.11 320.49 258.48 319.12"/><polygon class="cls-32" points="256.11 320.49 256.11 321.25 253.77 319.9 253.77 319.14 256.11 320.49"/><polygon class="cls-33" points="258.48 319.12 256.11 320.49 253.77 319.14 256.14 317.77 258.48 319.12"/></g><g class="cls-17"><polygon class="cls-37" points="261.48 320.85 261.48 321.6 259.11 322.98 259.11 322.23 261.48 320.85"/><polygon class="cls-32" points="259.11 322.23 259.11 322.98 256.76 321.63 256.77 320.87 259.11 322.23"/><polygon class="cls-33" points="261.48 320.85 259.11 322.23 256.77 320.87 259.13 319.5 261.48 320.85"/></g><g class="cls-17"><polygon class="cls-37" points="264.47 322.58 264.47 323.33 262.1 324.71 262.1 323.95 264.47 322.58"/><polygon class="cls-32" points="262.1 323.95 262.1 324.71 259.76 323.36 259.76 322.6 262.1 323.95"/><polygon class="cls-33" points="264.47 322.58 262.1 323.95 259.76 322.6 262.13 321.23 264.47 322.58"/></g><g class="cls-17"><polygon class="cls-37" points="267.47 324.3 267.46 325.06 265.09 326.44 265.1 325.68 267.47 324.3"/><polygon class="cls-32" points="265.1 325.68 265.09 326.44 262.76 325.08 262.76 324.33 265.1 325.68"/><polygon class="cls-33" points="267.47 324.3 265.1 325.68 262.76 324.33 265.13 322.95 267.47 324.3"/></g><g class="cls-17"><polygon class="cls-37" points="273.46 327.76 273.46 328.52 271.09 329.89 271.09 329.14 273.46 327.76"/><polygon class="cls-32" points="271.09 329.14 271.09 329.89 265.75 326.81 265.75 326.06 271.09 329.14"/><polygon class="cls-33" points="273.46 327.76 271.09 329.14 265.75 326.06 268.12 324.68 273.46 327.76"/></g><g class="cls-17"><polygon class="cls-37" points="243.47 313.96 243.47 314.71 241.1 316.09 241.1 315.34 243.47 313.96"/><polygon class="cls-32" points="241.1 315.34 241.1 316.09 232.77 311.28 232.77 310.53 241.1 315.34"/><polygon class="cls-33" points="243.47 313.96 241.1 315.34 232.77 310.53 235.14 309.15 243.47 313.96"/></g><g class="cls-17"><polygon class="cls-37" points="246.47 315.69 246.47 316.44 244.1 317.82 244.1 317.06 246.47 315.69"/><polygon class="cls-32" points="244.1 317.06 244.1 317.82 241.76 316.47 241.76 315.71 244.1 317.06"/><polygon class="cls-33" points="246.47 315.69 244.1 317.06 241.76 315.71 244.13 314.34 246.47 315.69"/></g><g class="cls-17"><polygon class="cls-37" points="249.47 317.42 249.47 318.17 247.09 319.55 247.1 318.8 249.47 317.42"/><polygon class="cls-32" points="247.1 318.8 247.09 319.55 244.76 318.2 244.76 317.45 247.1 318.8"/><polygon class="cls-33" points="249.47 317.42 247.1 318.8 244.76 317.45 247.13 316.07 249.47 317.42"/></g><g class="cls-17"><polygon class="cls-37" points="252.46 319.15 252.46 319.9 250.09 321.28 250.09 320.52 252.46 319.15"/><polygon class="cls-32" points="250.09 320.52 250.09 321.28 247.75 319.93 247.75 319.18 250.09 320.52"/><polygon class="cls-33" points="252.46 319.15 250.09 320.52 247.75 319.18 250.12 317.8 252.46 319.15"/></g><g class="cls-17"><polygon class="cls-37" points="255.45 320.88 255.45 321.63 253.08 323.01 253.08 322.25 255.45 320.88"/><polygon class="cls-32" points="253.08 322.25 253.08 323.01 250.74 321.66 250.75 320.9 253.08 322.25"/><polygon class="cls-33" points="255.45 320.88 253.08 322.25 250.75 320.9 253.12 319.53 255.45 320.88"/></g><g class="cls-17"><polygon class="cls-37" points="258.45 322.61 258.45 323.36 256.08 324.74 256.08 323.98 258.45 322.61"/><polygon class="cls-32" points="256.08 323.98 256.08 324.74 253.74 323.38 253.74 322.63 256.08 323.98"/><polygon class="cls-33" points="258.45 322.61 256.08 323.98 253.74 322.63 256.11 321.25 258.45 322.61"/></g><g class="cls-17"><polygon class="cls-37" points="261.45 324.33 261.44 325.09 259.07 326.47 259.08 325.71 261.45 324.33"/><polygon class="cls-32" points="259.08 325.71 259.07 326.47 256.74 325.12 256.74 324.36 259.08 325.71"/><polygon class="cls-33" points="261.45 324.33 259.08 325.71 256.74 324.36 259.11 322.99 261.45 324.33"/></g><g class="cls-17"><polygon class="cls-37" points="264.44 326.06 264.44 326.82 262.07 328.19 262.07 327.44 264.44 326.06"/><polygon class="cls-32" points="262.07 327.44 262.07 328.19 259.73 326.84 259.73 326.09 262.07 327.44"/><polygon class="cls-33" points="264.44 326.06 262.07 327.44 259.73 326.09 262.1 324.71 264.44 326.06"/></g><g class="cls-17"><polygon class="cls-37" points="270.43 329.52 270.43 330.28 268.06 331.65 268.06 330.9 270.43 329.52"/><polygon class="cls-32" points="268.06 330.9 268.06 331.65 262.72 328.57 262.73 327.82 268.06 330.9"/><polygon class="cls-33" points="270.43 329.52 268.06 330.9 262.73 327.82 265.1 326.44 270.43 329.52"/></g><g class="cls-17"><polygon class="cls-37" points="234.46 312.25 234.46 313.01 232.09 314.39 232.09 313.63 234.46 312.25"/><polygon class="cls-32" points="232.09 313.63 232.09 314.39 229.75 313.04 229.75 312.28 232.09 313.63"/><polygon class="cls-33" points="234.46 312.25 232.09 313.63 229.75 312.28 232.12 310.9 234.46 312.25"/></g><g class="cls-17"><polygon class="cls-37" points="237.46 313.99 237.46 314.74 235.09 316.12 235.09 315.36 237.46 313.99"/><polygon class="cls-32" points="235.09 315.36 235.09 316.12 232.75 314.77 232.75 314.01 235.09 315.36"/><polygon class="cls-33" points="237.46 313.99 235.09 315.36 232.75 314.01 235.12 312.64 237.46 313.99"/></g><g class="cls-17"><polygon class="cls-37" points="240.45 315.71 240.45 316.47 238.08 317.85 238.08 317.09 240.45 315.71"/><polygon class="cls-32" points="238.08 317.09 238.08 317.85 235.74 316.5 235.75 315.74 238.08 317.09"/><polygon class="cls-33" points="240.45 315.71 238.08 317.09 235.75 315.74 238.12 314.37 240.45 315.71"/></g><g class="cls-17"><polygon class="cls-37" points="255.43 324.36 255.43 325.12 253.06 326.49 253.06 325.74 255.43 324.36"/><polygon class="cls-32" points="253.06 325.74 253.06 326.49 238.74 318.22 238.74 317.47 253.06 325.74"/><polygon class="cls-33" points="255.43 324.36 253.06 325.74 238.74 317.47 241.11 316.09 255.43 324.36"/></g><g class="cls-17"><polygon class="cls-37" points="258.43 326.09 258.42 326.84 256.05 328.22 256.06 327.47 258.43 326.09"/><polygon class="cls-32" points="256.06 327.47 256.05 328.22 253.72 326.87 253.72 326.12 256.06 327.47"/><polygon class="cls-33" points="258.43 326.09 256.06 327.47 253.72 326.12 256.09 324.74 258.43 326.09"/></g><g class="cls-17"><polygon class="cls-37" points="261.42 327.82 261.42 328.57 259.05 329.95 259.05 329.2 261.42 327.82"/><polygon class="cls-32" points="259.05 329.2 259.05 329.95 256.71 328.6 256.71 327.85 259.05 329.2"/><polygon class="cls-33" points="261.42 327.82 259.05 329.2 256.71 327.85 259.08 326.47 261.42 327.82"/></g><g class="cls-17"><polygon class="cls-37" points="267.41 331.28 267.41 332.03 265.04 333.41 265.04 332.66 267.41 331.28"/><polygon class="cls-32" points="265.04 332.66 265.04 333.41 259.7 330.33 259.7 329.57 265.04 332.66"/><polygon class="cls-33" points="267.41 331.28 265.04 332.66 259.7 329.57 262.07 328.2 267.41 331.28"/></g><polygon class="cls-27" points="258.26 263.67 258.23 275.57 247.88 269.59 247.91 257.69 258.26 263.67"/><g class="cls-17"><polygon class="cls-33" points="268.15 273.86 268.15 274.33 260.64 269.99 260.64 269.52 268.15 273.86"/><polygon class="cls-33" points="268.15 272.37 268.15 272.84 260.64 268.5 260.64 268.03 268.15 272.37"/><polygon class="cls-33" points="268.16 270.88 268.16 271.35 260.65 267.02 260.65 266.54 268.16 270.88"/><polygon class="cls-33" points="268.16 269.39 268.16 269.86 260.65 265.52 260.65 265.05 268.16 269.39"/></g><polygon class="cls-33" points="268.14 276.83 268.14 277.31 260.63 272.97 260.63 272.5 268.14 276.83"/><polygon class="cls-33" points="268.14 275.34 268.14 275.82 260.63 271.48 260.64 271.01 268.14 275.34"/><polygon class="cls-33" points="266.23 277.22 266.23 277.7 260.63 274.46 260.63 273.99 266.23 277.22"/><g class="cls-17"><path class="cls-31" d="M249.37,253.71a.79.79,0,0,1,.36.62c0,.23-.17.32-.36.2a.78.78,0,0,1-.36-.61C249,253.69,249.17,253.6,249.37,253.71Z"/><path class="cls-33" d="M269.83,264.87a1.51,1.51,0,0,1,.68,1.18v3.24a1.38,1.38,0,0,0-.62-1.08L246,254.44c-.35-.2-.63,0-.63.36v-3.23c0-.44.31-.62.69-.4ZM247.92,253.7c.2.11.36,0,.36-.2a.78.78,0,0,0-.36-.62c-.2-.12-.36,0-.36.2a.79.79,0,0,0,.36.62m1.45.83c.19.12.36,0,.36-.2a.79.79,0,0,0-.36-.62c-.2-.11-.36,0-.36.21a.78.78,0,0,0,.36.61m-2.9-1.67c.2.12.36,0,.36-.2a.81.81,0,0,0-.35-.62c-.2-.11-.36,0-.36.21a.77.77,0,0,0,.35.61"/><path class="cls-2" d="M269.88,268.21a1.38,1.38,0,0,1,.62,1.08l0,15.58a.39.39,0,0,1-.63.36L246,271.46a1.37,1.37,0,0,1-.63-1.08l0-15.58c0-.4.28-.56.63-.36Zm-11.65,7.36,0-11.9-10.35-6,0,11.9,10.35,6m9.91.25v-.48l-7.5-4.33v.47l7.51,4.34m0-4.47v-.47l-7.51-4.34V267l7.51,4.33m0,1.49v-.47L260.64,268v.47l7.51,4.34m0-3v-.47l-7.51-4.34v.47l7.51,4.34m0,7.45v-.48l-7.51-4.33V273l7.51,4.34m0-3v-.47l-7.51-4.34V270l7.51,4.34m-1.92,3.37v-.48l-5.6-3.23v.47l5.6,3.24"/></g><path class="cls-24" d="M246.48,252a.81.81,0,0,1,.35.62c0,.23-.16.32-.36.2a.77.77,0,0,1-.35-.61C246.12,252,246.28,251.93,246.48,252Z"/><path class="cls-27" d="M247.92,252.88a.78.78,0,0,1,.36.62c0,.22-.16.31-.36.2a.79.79,0,0,1-.36-.62C247.56,252.85,247.72,252.76,247.92,252.88Z"/><path class="cls-32" d="M207.91,302.09a.3.3,0,0,0,.12.25l4.85,2.75.81-.52c-1.33-.75-4.11-2.27-5.72-3.17A4,4,0,0,0,207.91,302.09Z"/><path class="cls-38" d="M208,301.4c1.61.9,4.39,2.42,5.72,3.17l9.9-6.3L221,296.83c-1.63-.9-3.38-2.09-5.24-2.32A7.76,7.76,0,0,0,208,301.4Z"/><path class="cls-37" d="M213.19,305.09a.34.34,0,0,1-.5-.31,6.86,6.86,0,0,1,4-6.2c1.15-.65,4.62-2.05,7.14-.16a.34.34,0,0,1,0,.56C220,301.24,214.82,304.17,213.19,305.09Z"/><path class="cls-32" d="M351,231.07l1.68,1a1.19,1.19,0,0,1-.49-1.09l-1.68-1A1.19,1.19,0,0,0,351,231.07Z"/><path class="cls-32" d="M400.43,163.56l-1.68-1a1.19,1.19,0,0,0-1.2.12l1.68,1A1.21,1.21,0,0,1,400.43,163.56Z"/><polygon class="cls-32" points="352.05 192.87 350.37 191.89 350.46 229.99 352.15 230.96 352.05 192.87"/><polygon class="cls-32" points="399.23 163.68 397.55 162.71 352.06 188.97 353.74 189.95 399.23 163.68"/><path class="cls-32" d="M353.74,190l-1.68-1a3.73,3.73,0,0,0-1.69,2.92l1.68,1A3.73,3.73,0,0,1,353.74,190Z"/><path class="cls-36" d="M353.74,190a3.73,3.73,0,0,0-1.69,2.92l.1,38.09c0,1.08.76,1.51,1.69,1l45.49-26.27a3.7,3.7,0,0,0,1.69-2.91l-.1-38.1c0-1.08-.75-1.51-1.69-1Z"/><polygon class="cls-35" points="399.24 167.51 399.32 201.83 353.83 228.1 353.75 193.78 399.24 167.51"/><path class="cls-39" d="M353.14,232.91v2a1.16,1.16,0,0,0,.69,1v-1.94A1.18,1.18,0,0,1,353.14,232.91Z"/><path class="cls-39" d="M386.44,252.78v1.95a3.75,3.75,0,0,0,3.36,0v-1.95A3.71,3.71,0,0,1,386.44,252.78Z"/><path class="cls-39" d="M436,227.48v-1.94a1.17,1.17,0,0,1-.7,1v1.94A1.18,1.18,0,0,0,436,227.48Z"/><polygon class="cls-39" points="353.83 233.88 353.83 235.82 386.44 254.73 386.44 252.78 353.83 233.88"/><polygon class="cls-39" points="389.81 252.78 389.81 254.73 435.31 228.46 435.3 226.52 389.81 252.78"/><path class="cls-32" d="M353.84,231.93a1,1,0,0,0,0,1.95l32.61,18.9a3.71,3.71,0,0,0,3.37,0l45.49-26.26a1,1,0,0,0,0-2L402.7,205.66a3.74,3.74,0,0,0-3.37,0Z"/><g class="cls-17"><path class="cls-33" d="M390.75,236.85l16.77-9.68a1.84,1.84,0,0,1,1.68,0l8.66,5a.51.51,0,0,1,0,1l-16.77,9.69a1.9,1.9,0,0,1-1.69,0l-8.66-5c-.47-.27-.46-.7,0-1"/></g><g class="cls-17"><polygon class="cls-36" points="398.83 208.63 398.84 209.12 401.9 210.9 401.9 210.41 398.83 208.63"/><polygon class="cls-36" points="401.9 210.41 401.9 210.9 404.91 209.16 404.91 208.67 401.9 210.41"/><polygon class="cls-16" points="398.83 208.63 401.9 210.41 404.91 208.67 401.85 206.89 398.83 208.63"/></g><g class="cls-17"><polygon class="cls-36" points="394.97 210.87 394.97 211.35 398.03 213.13 398.03 212.64 394.97 210.87"/><polygon class="cls-36" points="398.03 212.64 398.03 213.13 401.05 211.39 401.05 210.9 398.03 212.64"/><polygon class="cls-16" points="394.97 210.87 398.03 212.64 401.05 210.9 397.99 209.12 394.97 210.87"/></g><g class="cls-17"><polygon class="cls-36" points="391.11 213.09 391.11 213.58 394.17 215.36 394.17 214.87 391.11 213.09"/><polygon class="cls-36" points="394.17 214.87 394.17 215.36 397.19 213.62 397.19 213.13 394.17 214.87"/><polygon class="cls-16" points="391.11 213.09 394.17 214.87 397.19 213.13 394.12 211.35 391.11 213.09"/></g><g class="cls-17"><polygon class="cls-36" points="387.25 215.32 387.25 215.81 390.31 217.59 390.31 217.1 387.25 215.32"/><polygon class="cls-36" points="390.31 217.1 390.31 217.59 393.33 215.85 393.33 215.36 390.31 217.1"/><polygon class="cls-16" points="387.25 215.32 390.31 217.1 393.33 215.36 390.26 213.58 387.25 215.32"/></g><g class="cls-17"><polygon class="cls-36" points="383.39 217.55 383.39 218.03 386.45 219.81 386.45 219.33 383.39 217.55"/><polygon class="cls-36" points="386.45 219.33 386.45 219.81 389.47 218.07 389.47 217.59 386.45 219.33"/><polygon class="cls-16" points="383.39 217.55 386.45 219.33 389.47 217.59 386.4 215.81 383.39 217.55"/></g><g class="cls-17"><polygon class="cls-36" points="379.52 219.78 379.53 220.27 382.59 222.05 382.59 221.56 379.52 219.78"/><polygon class="cls-36" points="382.59 221.56 382.59 222.05 385.6 220.31 385.6 219.82 382.59 221.56"/><polygon class="cls-16" points="379.52 219.78 382.59 221.56 385.6 219.82 382.54 218.04 379.52 219.78"/></g><g class="cls-17"><polygon class="cls-36" points="375.67 222.01 375.67 222.5 378.73 224.28 378.73 223.79 375.67 222.01"/><polygon class="cls-36" points="378.73 223.79 378.73 224.28 381.74 222.53 381.74 222.05 378.73 223.79"/><polygon class="cls-16" points="375.67 222.01 378.73 223.79 381.74 222.05 378.68 220.27 375.67 222.01"/></g><g class="cls-17"><polygon class="cls-36" points="371.81 224.24 371.81 224.72 374.87 226.5 374.87 226.02 371.81 224.24"/><polygon class="cls-36" points="374.87 226.02 374.87 226.5 377.88 224.76 377.88 224.28 374.87 226.02"/><polygon class="cls-16" points="371.81 224.24 374.87 226.02 377.88 224.28 374.82 222.5 371.81 224.24"/></g><g class="cls-17"><polygon class="cls-36" points="367.94 226.47 367.94 226.96 371 228.74 371 228.25 367.94 226.47"/><polygon class="cls-36" points="371 228.25 371 228.74 374.02 226.99 374.02 226.5 371 228.25"/><polygon class="cls-16" points="367.94 226.47 371 228.25 374.02 226.5 370.96 224.72 367.94 226.47"/></g><g class="cls-17"><polygon class="cls-36" points="364.08 228.7 364.08 229.18 367.14 230.96 367.14 230.48 364.08 228.7"/><polygon class="cls-36" points="367.14 230.48 367.14 230.96 370.16 229.22 370.16 228.74 367.14 230.48"/><polygon class="cls-16" points="364.08 228.7 367.14 230.48 370.16 228.74 367.1 226.96 364.08 228.7"/></g><g class="cls-17"><polygon class="cls-36" points="356.36 233.16 356.36 233.64 359.42 235.42 359.42 234.94 356.36 233.16"/><polygon class="cls-36" points="359.42 234.94 359.42 235.42 366.3 231.45 366.3 230.97 359.42 234.94"/><polygon class="cls-16" points="356.36 233.16 359.42 234.94 366.3 230.97 363.24 229.19 356.36 233.16"/></g><g class="cls-17"><polygon class="cls-36" points="398.87 213.13 398.87 213.62 401.93 215.39 401.93 214.91 398.87 213.13"/><polygon class="cls-36" points="401.93 214.91 401.93 215.39 408.81 211.42 408.81 210.94 401.93 214.91"/><polygon class="cls-16" points="398.87 213.13 401.93 214.91 408.81 210.94 405.75 209.16 398.87 213.13"/></g><g class="cls-17"><polygon class="cls-36" points="395.01 215.36 395.01 215.85 398.07 217.62 398.06 217.14 395.01 215.36"/><polygon class="cls-36" points="398.06 217.14 398.07 217.62 401.08 215.88 401.08 215.4 398.06 217.14"/><polygon class="cls-16" points="395.01 215.36 398.06 217.14 401.08 215.4 398.02 213.62 395.01 215.36"/></g><g class="cls-17"><polygon class="cls-36" points="391.15 217.59 391.15 218.07 394.21 219.85 394.21 219.36 391.15 217.59"/><polygon class="cls-36" points="394.21 219.36 394.21 219.85 397.22 218.11 397.22 217.62 394.21 219.36"/><polygon class="cls-16" points="391.15 217.59 394.21 219.36 397.22 217.62 394.17 215.85 391.15 217.59"/></g><g class="cls-17"><polygon class="cls-36" points="387.29 219.82 387.29 220.3 390.35 222.08 390.35 221.59 387.29 219.82"/><polygon class="cls-36" points="390.35 221.59 390.35 222.08 393.36 220.34 393.36 219.85 390.35 221.59"/><polygon class="cls-16" points="387.29 219.82 390.35 221.59 393.36 219.85 390.31 218.08 387.29 219.82"/></g><g class="cls-17"><polygon class="cls-36" points="383.43 222.05 383.43 222.53 386.48 224.31 386.48 223.82 383.43 222.05"/><polygon class="cls-36" points="386.48 223.82 386.48 224.31 389.5 222.57 389.5 222.08 386.48 223.82"/><polygon class="cls-16" points="383.43 222.05 386.48 223.82 389.5 222.08 386.44 220.31 383.43 222.05"/></g><g class="cls-17"><polygon class="cls-36" points="379.57 224.28 379.57 224.76 382.62 226.54 382.62 226.05 379.57 224.28"/><polygon class="cls-36" points="382.62 226.05 382.62 226.54 385.64 224.8 385.64 224.31 382.62 226.05"/><polygon class="cls-16" points="379.57 224.28 382.62 226.05 385.64 224.31 382.58 222.54 379.57 224.28"/></g><g class="cls-17"><polygon class="cls-36" points="375.71 226.5 375.71 226.99 378.76 228.77 378.76 228.28 375.71 226.5"/><polygon class="cls-36" points="378.76 228.28 378.76 228.77 381.78 227.03 381.78 226.54 378.76 228.28"/><polygon class="cls-16" points="375.71 226.5 378.76 228.28 381.78 226.54 378.72 224.76 375.71 226.5"/></g><g class="cls-17"><polygon class="cls-36" points="371.84 228.74 371.84 229.22 374.9 231 374.9 230.51 371.84 228.74"/><polygon class="cls-36" points="374.9 230.51 374.9 231 377.92 229.25 377.92 228.77 374.9 230.51"/><polygon class="cls-16" points="371.84 228.74 374.9 230.51 377.92 228.77 374.86 226.99 371.84 228.74"/></g><g class="cls-17"><polygon class="cls-36" points="367.98 230.97 367.98 231.45 371.04 233.23 371.04 232.74 367.98 230.97"/><polygon class="cls-36" points="371.04 232.74 371.04 233.23 374.05 231.49 374.05 231 371.04 232.74"/><polygon class="cls-16" points="367.98 230.97 371.04 232.74 374.05 231 371 229.22 367.98 230.97"/></g><g class="cls-17"><polygon class="cls-36" points="364.12 233.19 364.13 233.68 367.18 235.45 367.18 234.97 364.12 233.19"/><polygon class="cls-36" points="367.18 234.97 367.18 235.45 370.19 233.71 370.19 233.23 367.18 234.97"/><polygon class="cls-16" points="364.12 233.19 367.18 234.97 370.19 233.23 367.14 231.45 364.12 233.19"/></g><g class="cls-17"><polygon class="cls-36" points="360.26 235.43 360.26 235.91 363.31 237.69 363.31 237.2 360.26 235.43"/><polygon class="cls-36" points="363.31 237.2 363.31 237.69 366.33 235.94 366.33 235.46 363.31 237.2"/><polygon class="cls-16" points="360.26 235.43 363.31 237.2 366.33 235.46 363.28 233.68 360.26 235.43"/></g><g class="cls-17"><polygon class="cls-36" points="402.76 215.4 402.76 215.88 405.82 217.66 405.82 217.17 402.76 215.4"/><polygon class="cls-36" points="405.82 217.17 405.82 217.66 412.7 213.68 412.7 213.2 405.82 217.17"/><polygon class="cls-16" points="402.76 215.4 405.82 217.17 412.7 213.2 409.64 211.42 402.76 215.4"/></g><g class="cls-17"><polygon class="cls-36" points="398.9 217.62 398.91 218.11 401.96 219.88 401.96 219.4 398.9 217.62"/><polygon class="cls-36" points="401.96 219.4 401.96 219.88 404.98 218.15 404.97 217.66 401.96 219.4"/><polygon class="cls-16" points="398.9 217.62 401.96 219.4 404.97 217.66 401.92 215.88 398.9 217.62"/></g><g class="cls-17"><polygon class="cls-36" points="395.05 219.85 395.05 220.34 398.1 222.11 398.1 221.63 395.05 219.85"/><polygon class="cls-36" points="398.1 221.63 398.1 222.11 401.12 220.37 401.12 219.89 398.1 221.63"/><polygon class="cls-16" points="395.05 219.85 398.1 221.63 401.12 219.89 398.06 218.11 395.05 219.85"/></g><g class="cls-17"><polygon class="cls-36" points="391.19 222.08 391.19 222.56 394.24 224.34 394.24 223.85 391.19 222.08"/><polygon class="cls-36" points="394.24 223.85 394.24 224.34 397.26 222.6 397.26 222.12 394.24 223.85"/><polygon class="cls-16" points="391.19 222.08 394.24 223.85 397.26 222.12 394.2 220.34 391.19 222.08"/></g><g class="cls-17"><polygon class="cls-36" points="387.32 224.31 387.32 224.8 390.38 226.57 390.38 226.09 387.32 224.31"/><polygon class="cls-36" points="390.38 226.09 390.38 226.57 393.39 224.83 393.39 224.35 390.38 226.09"/><polygon class="cls-16" points="387.32 224.31 390.38 226.09 393.39 224.35 390.33 222.57 387.32 224.31"/></g><g class="cls-17"><polygon class="cls-36" points="383.46 226.54 383.46 227.03 386.52 228.8 386.52 228.31 383.46 226.54"/><polygon class="cls-36" points="386.52 228.31 386.52 228.8 389.53 227.06 389.53 226.57 386.52 228.31"/><polygon class="cls-16" points="383.46 226.54 386.52 228.31 389.53 226.57 386.48 224.8 383.46 226.54"/></g><g class="cls-17"><polygon class="cls-36" points="379.6 228.77 379.6 229.25 382.66 231.03 382.66 230.54 379.6 228.77"/><polygon class="cls-36" points="382.66 230.54 382.66 231.03 385.67 229.29 385.67 228.8 382.66 230.54"/><polygon class="cls-16" points="379.6 228.77 382.66 230.54 385.67 228.8 382.62 227.03 379.6 228.77"/></g><g class="cls-17"><polygon class="cls-36" points="375.74 231 375.74 231.49 378.79 233.26 378.79 232.78 375.74 231"/><polygon class="cls-36" points="378.79 232.78 378.79 233.26 381.81 231.52 381.81 231.03 378.79 232.78"/><polygon class="cls-16" points="375.74 231 378.79 232.78 381.81 231.03 378.76 229.26 375.74 231"/></g><g class="cls-17"><polygon class="cls-36" points="371.88 233.23 371.88 233.71 374.93 235.49 374.93 235 371.88 233.23"/><polygon class="cls-36" points="374.93 235 374.93 235.49 377.95 233.75 377.95 233.26 374.93 235"/><polygon class="cls-16" points="371.88 233.23 374.93 235 377.95 233.26 374.89 231.49 371.88 233.23"/></g><g class="cls-17"><polygon class="cls-36" points="364.15 237.69 364.15 238.17 367.21 239.95 367.21 239.46 364.15 237.69"/><polygon class="cls-36" points="367.21 239.46 367.21 239.95 374.09 235.98 374.09 235.49 367.21 239.46"/><polygon class="cls-16" points="364.15 237.69 367.21 239.46 374.09 235.49 371.03 233.72 364.15 237.69"/></g><g class="cls-17"><polygon class="cls-36" points="402.8 219.89 402.8 220.37 405.86 222.15 405.85 221.66 402.8 219.89"/><polygon class="cls-36" points="405.85 221.66 405.86 222.15 416.6 215.95 416.59 215.46 405.85 221.66"/><polygon class="cls-16" points="402.8 219.89 405.85 221.66 416.59 215.46 413.54 213.69 402.8 219.89"/></g><g class="cls-17"><polygon class="cls-36" points="398.94 222.12 398.94 222.6 402 224.38 402 223.89 398.94 222.12"/><polygon class="cls-36" points="402 223.89 402 224.38 405.01 222.64 405.01 222.15 402 223.89"/><polygon class="cls-16" points="398.94 222.12 402 223.89 405.01 222.15 401.95 220.37 398.94 222.12"/></g><g class="cls-17"><polygon class="cls-36" points="395.08 224.34 395.08 224.83 398.14 226.6 398.14 226.12 395.08 224.34"/><polygon class="cls-36" points="398.14 226.12 398.14 226.6 401.15 224.86 401.15 224.38 398.14 226.12"/><polygon class="cls-16" points="395.08 224.34 398.14 226.12 401.15 224.38 398.1 222.6 395.08 224.34"/></g><g class="cls-17"><polygon class="cls-36" points="391.21 226.57 391.22 227.06 394.27 228.84 394.27 228.35 391.21 226.57"/><polygon class="cls-36" points="394.27 228.35 394.27 228.84 397.29 227.1 397.28 226.61 394.27 228.35"/><polygon class="cls-16" points="391.21 226.57 394.27 228.35 397.28 226.61 394.23 224.84 391.21 226.57"/></g><g class="cls-17"><polygon class="cls-36" points="387.36 228.8 387.36 229.29 390.41 231.06 390.41 230.58 387.36 228.8"/><polygon class="cls-36" points="390.41 230.58 390.41 231.06 393.43 229.32 393.43 228.84 390.41 230.58"/><polygon class="cls-16" points="387.36 228.8 390.41 230.58 393.43 228.84 390.37 227.06 387.36 228.8"/></g><g class="cls-17"><polygon class="cls-36" points="383.5 231.03 383.5 231.52 386.55 233.29 386.55 232.81 383.5 231.03"/><polygon class="cls-36" points="386.55 232.81 386.55 233.29 389.57 231.55 389.57 231.07 386.55 232.81"/><polygon class="cls-16" points="383.5 231.03 386.55 232.81 389.57 231.07 386.51 229.29 383.5 231.03"/></g><g class="cls-17"><polygon class="cls-36" points="379.63 233.26 379.63 233.75 382.69 235.53 382.69 235.04 379.63 233.26"/><polygon class="cls-36" points="382.69 235.04 382.69 235.53 385.71 233.78 385.71 233.29 382.69 235.04"/><polygon class="cls-16" points="379.63 233.26 382.69 235.04 385.71 233.29 382.65 231.52 379.63 233.26"/></g><g class="cls-17"><polygon class="cls-36" points="375.77 235.49 375.77 235.98 378.83 237.75 378.83 237.27 375.77 235.49"/><polygon class="cls-36" points="378.83 237.27 378.83 237.75 381.84 236.01 381.84 235.53 378.83 237.27"/><polygon class="cls-16" points="375.77 235.49 378.83 237.27 381.84 235.53 378.79 233.75 375.77 235.49"/></g><g class="cls-17"><polygon class="cls-36" points="368.05 239.95 368.05 240.44 371.1 242.21 371.1 241.73 368.05 239.95"/><polygon class="cls-36" points="371.1 241.73 371.1 242.21 377.98 238.24 377.98 237.75 371.1 241.73"/><polygon class="cls-16" points="368.05 239.95 371.1 241.73 377.98 237.75 374.93 235.98 368.05 239.95"/></g><g class="cls-17"><polygon class="cls-36" points="414.42 217.69 414.42 218.18 417.48 219.96 417.48 219.47 414.42 217.69"/><polygon class="cls-36" points="417.48 219.47 417.48 219.96 420.5 218.22 420.5 217.73 417.48 219.47"/><polygon class="cls-16" points="414.42 217.69 417.48 219.47 420.5 217.73 417.43 215.95 414.42 217.69"/></g><g class="cls-17"><polygon class="cls-36" points="410.55 219.92 410.55 220.41 413.62 222.19 413.62 221.7 410.55 219.92"/><polygon class="cls-36" points="413.62 221.7 413.62 222.19 416.64 220.44 416.64 219.96 413.62 221.7"/><polygon class="cls-16" points="410.55 219.92 413.62 221.7 416.64 219.96 413.57 218.18 410.55 219.92"/></g><g class="cls-17"><polygon class="cls-36" points="406.69 222.15 406.69 222.64 409.76 224.41 409.76 223.93 406.69 222.15"/><polygon class="cls-36" points="409.76 223.93 409.76 224.41 412.77 222.68 412.77 222.19 409.76 223.93"/><polygon class="cls-16" points="406.69 222.15 409.76 223.93 412.77 222.19 409.71 220.41 406.69 222.15"/></g><g class="cls-17"><polygon class="cls-36" points="387.39 233.29 387.39 233.78 390.45 235.56 390.45 235.07 387.39 233.29"/><polygon class="cls-36" points="390.45 235.07 390.45 235.56 408.91 224.9 408.91 224.42 390.45 235.07"/><polygon class="cls-16" points="387.39 233.29 390.45 235.07 408.91 224.42 405.85 222.64 387.39 233.29"/></g><g class="cls-17"><polygon class="cls-36" points="383.52 235.53 383.53 236.01 386.59 237.79 386.59 237.31 383.52 235.53"/><polygon class="cls-36" points="386.59 237.31 386.59 237.79 389.61 236.05 389.61 235.56 386.59 237.31"/><polygon class="cls-16" points="383.52 235.53 386.59 237.31 389.61 235.56 386.55 233.78 383.52 235.53"/></g><g class="cls-17"><polygon class="cls-36" points="379.67 237.75 379.67 238.24 382.73 240.02 382.73 239.53 379.67 237.75"/><polygon class="cls-36" points="382.73 239.53 382.73 240.02 385.74 238.28 385.74 237.79 382.73 239.53"/><polygon class="cls-16" points="379.67 237.75 382.73 239.53 385.74 237.79 382.68 236.01 379.67 237.75"/></g><g class="cls-17"><polygon class="cls-36" points="371.94 242.22 371.94 242.7 375 244.48 375 244 371.94 242.22"/><polygon class="cls-36" points="375 244 375 244.48 381.88 240.51 381.88 240.02 375 244"/><polygon class="cls-16" points="371.94 242.22 375 244 381.88 240.02 378.82 238.24 371.94 242.22"/></g><polygon class="cls-2" points="393.98 200.32 358.77 220.65 358.77 195.29 358.77 195.29 393.98 174.97 393.98 200.32"/><polygon class="cls-35" points="361.14 197.71 373.73 190.44 373.73 208.11 361.14 215.38 361.14 197.71"/><polygon class="cls-16" points="390.48 181.8 376.38 189.95 376.38 188.91 390.48 180.77 390.48 181.8"/><polygon class="cls-16" points="390.48 184.2 376.38 192.34 376.38 191.3 390.48 183.16 390.48 184.2"/><polygon class="cls-16" points="390.48 186.59 376.38 194.73 376.38 193.7 390.48 185.55 390.48 186.59"/><polygon class="cls-16" points="390.48 188.98 376.38 197.13 376.38 196.09 390.48 187.95 390.48 188.98"/><polygon class="cls-16" points="390.48 191.38 376.38 199.52 376.38 198.48 390.48 190.34 390.48 191.38"/><polygon class="cls-16" points="390.48 193.77 376.38 201.91 376.38 200.88 390.48 192.73 390.48 193.77"/><polygon class="cls-16" points="390.48 198.56 380.66 204.23 380.66 203.19 390.48 197.52 390.48 198.56"/><polygon class="cls-16" points="390.48 196.16 376.38 204.31 376.38 203.27 390.48 195.13 390.48 196.16"/><polygon class="cls-31" points="368.49 195.05 372.21 200.34 364.77 204.63 368.49 195.05"/><polygon class="cls-27" points="365.52 198.32 369.24 203.61 361.8 207.91 365.52 198.32"/><path class="cls-24" d="M362.62,209.17c0,1.85,1.3,2.6,2.9,1.68a6.43,6.43,0,0,0,2.9-5c0-1.84-1.3-2.59-2.9-1.67A6.4,6.4,0,0,0,362.62,209.17Z"/><polygon class="cls-40" points="232.73 138.97 228.93 143.33 227.05 140.09 232.73 138.97"/><polygon class="cls-27" points="232.73 138.97 231.68 140.17 231.17 139.28 232.73 138.97"/><path class="cls-27" d="M227.05,140.09a1,1,0,0,1,.95.09,2.93,2.93,0,0,1,1.32,2.3.92.92,0,0,1-.39.85l-27.78,16.14a.91.91,0,0,0,.39-.85,2.91,2.91,0,0,0-1.33-2.29.92.92,0,0,0-.94-.1Z"/><path class="cls-26" d="M200.21,156.33c-.73-.43-1.33-.09-1.33.76a2.91,2.91,0,0,0,1.33,2.29c.73.43,1.33.09,1.33-.76A2.91,2.91,0,0,0,200.21,156.33Z"/><polygon class="cls-40" points="219.49 141.25 215.69 145.61 213.81 142.37 219.49 141.25"/><polygon class="cls-24" points="219.49 141.25 218.44 142.45 217.93 141.56 219.49 141.25"/><path class="cls-24" d="M213.81,142.37a1,1,0,0,1,.95.09,2.9,2.9,0,0,1,1.32,2.3,1,1,0,0,1-.38.85L197.77,156a.92.92,0,0,0,.38-.85,2.91,2.91,0,0,0-1.32-2.3,1,1,0,0,0-1-.09Z"/><path class="cls-22" d="M196.83,152.89c-.73-.42-1.33-.08-1.34.76a3,3,0,0,0,1.33,2.3c.74.42,1.33.08,1.33-.76A2.91,2.91,0,0,0,196.83,152.89Z"/><path class="cls-26" d="M237.25,147.36a.49.49,0,0,0,.29-.39v3.48a.5.5,0,0,1-.29.4l-3.91,2.26v-3.49Z"/><polygon class="cls-41" points="228.12 146.59 228.13 150.07 233.35 153.1 233.34 149.62 228.12 146.59"/><path class="cls-27" d="M228.12,146.59l5.22,3,3.91-2.26a.41.41,0,0,0,0-.78l-3.88-2.25a1.44,1.44,0,0,0-1.34,0Z"/><polygon class="cls-38" points="225.39 148.16 225.4 151.65 230.62 154.68 230.61 151.2 225.39 148.16"/><polygon class="cls-42" points="230.61 151.2 230.62 154.68 233.35 153.1 233.34 149.62 230.61 151.2"/><polygon class="cls-40" points="225.39 148.16 230.61 151.2 233.34 149.62 228.12 146.59 225.39 148.16"/><path class="cls-22" d="M221.47,151.2l3.88,2.26a1.5,1.5,0,0,0,1.34,0l3.92-2.26v3.48l-3.92,2.26a1.44,1.44,0,0,1-1.34,0l-3.88-2.25a.49.49,0,0,1-.28-.39v-3.48A.47.47,0,0,0,221.47,151.2Z"/><path class="cls-24" d="M221.48,150.42c-.38.22-.38.57,0,.78l3.88,2.26a1.5,1.5,0,0,0,1.34,0l3.92-2.26-5.22-3Z"/><path class="cls-40" d="M274,117.81,329.7,150c1.29.74,1.13,2-.36,2.9l-32.27,18.63a5.58,5.58,0,0,1-5,.21l-55.72-32.17c-1.29-.75-1.13-2.05.36-2.9L269,118A5.55,5.55,0,0,1,274,117.81Z"/><polygon class="cls-43" points="269.09 128.22 265.43 126.11 244.1 138.42 247.76 140.54 269.09 128.22"/><polygon class="cls-43" points="276.93 132.75 273.27 130.63 251.94 142.95 255.6 145.06 276.93 132.75"/><polygon class="cls-43" points="284.77 137.27 281.11 135.16 259.78 147.47 263.44 149.59 284.77 137.27"/><polygon class="cls-43" points="292.61 141.8 288.95 139.69 267.62 152 271.27 154.11 292.61 141.8"/><polygon class="cls-43" points="300.44 146.32 296.78 144.21 275.45 156.53 279.11 158.64 300.44 146.32"/><polygon class="cls-44" points="269.09 128.22 265.43 126.11 260.1 129.18 263.76 131.3 269.09 128.22"/><polygon class="cls-31" points="276.93 132.75 273.27 130.63 260.84 137.81 264.5 139.92 276.93 132.75"/><polygon class="cls-27" points="284.77 137.27 281.11 135.16 272.04 140.4 275.7 142.51 284.77 137.27"/><polygon class="cls-16" points="292.61 141.8 288.95 139.69 273.56 148.57 277.22 150.68 292.61 141.8"/><polygon class="cls-24" points="300.44 146.32 296.78 144.21 278.64 154.68 282.3 156.8 300.44 146.32"/><polygon class="cls-43" points="284.2 159.8 296.06 166.64 294.52 167.53 282.66 160.69 284.2 159.8"/><polygon class="cls-43" points="287.75 157.74 299.61 164.59 298.07 165.48 286.21 158.63 287.75 157.74"/><polygon class="cls-43" points="291.31 155.69 303.17 162.54 301.63 163.43 289.77 156.58 291.31 155.69"/><polygon class="cls-43" points="294.86 153.64 306.72 160.49 305.18 161.37 293.32 154.53 294.86 153.64"/><polygon class="cls-43" points="298.42 151.59 310.28 158.43 308.74 159.32 296.88 152.48 298.42 151.59"/><polygon class="cls-43" points="301.97 149.53 313.83 156.38 312.29 157.27 300.43 150.42 301.97 149.53"/><polygon class="cls-43" points="309.08 145.43 317.34 150.2 315.8 151.09 307.55 146.32 309.08 145.43"/><polygon class="cls-43" points="305.53 147.48 317.39 154.33 315.85 155.22 303.99 148.37 305.53 147.48"/><polygon class="cls-43" points="269.16 123.96 304.17 144.17 302.63 145.06 267.62 124.84 269.16 123.96"/><polygon class="cls-31" points="270.92 167.64 245.98 153.25 231.79 161.44 256.73 175.83 270.92 167.64"/><polygon class="cls-28" points="256.73 175.83 253.97 163.03 231.79 161.44 256.73 175.83"/><polygon class="cls-29" points="245.98 153.25 248.81 166.01 270.92 167.64 245.98 153.25"/><polygon class="cls-40" points="133.04 186.67 89.97 211.54 144.35 242.94 187.43 218.07 133.04 186.67"/><path class="cls-24" d="M144.7,218.27l6-9.47a21.88,21.88,0,0,1,6.41,2.33Z"/><path class="cls-26" d="M144.7,218.27l-12.36-7.14c4.91-2.84,12.13-3.6,18.31-2.33Z"/><path class="cls-24" d="M157.06,225.41l-12.36-7.14L162,217C162.73,220.09,160.89,223.2,157.06,225.41Z"/><path class="cls-27" d="M138.75,227.74a21.42,21.42,0,0,1-6.41-2.33c-6.78-3.92-6.78-10.36,0-14.28l12.36,7.14Z"/><path class="cls-31" d="M138.75,227.74l5.95-9.47,12.36,7.14C152.15,228.25,144.94,229,138.75,227.74Z"/><path class="cls-42" d="M109.58,217.2a.53.53,0,0,0,.24-.06l32.43-18.72a.5.5,0,0,0,.18-.67.49.49,0,0,0-.68-.18l-32.42,18.72a.48.48,0,0,0-.18.67A.49.49,0,0,0,109.58,217.2Z"/><path class="cls-42" d="M105.77,215a.5.5,0,0,0,.24-.06l32.43-18.72a.5.5,0,0,0,.18-.67.48.48,0,0,0-.67-.18l-32.43,18.72a.49.49,0,0,0,.25.91Z"/><path class="cls-42" d="M102,212.81a.42.42,0,0,0,.24-.07L134.63,194a.5.5,0,0,0,.18-.67.48.48,0,0,0-.67-.18l-32.43,18.72a.49.49,0,0,0,.25.92Z"/><g class="cls-17"><path class="cls-28" d="M98.68,245l0,6a2.72,2.72,0,0,0,1.58,2.22v-6A2.69,2.69,0,0,1,98.68,245Z"/><path class="cls-29" d="M159.53,251l0-6a2.72,2.72,0,0,1-1.61,2.24l0,6A2.75,2.75,0,0,0,159.53,251Z"/><polygon class="cls-28" points="100.27 247.21 100.28 253.25 125.17 267.71 125.15 261.68 100.27 247.21"/><polygon class="cls-29" points="132.84 261.68 132.86 267.72 157.92 253.25 157.9 247.21 132.84 261.68"/><path class="cls-29" d="M125.15,261.68l0,6a8.47,8.47,0,0,0,7.68,0v-6a8.52,8.52,0,0,1-7.7,0Z"/><path class="cls-31" d="M100.28,242.76c-2.13,1.23-2.14,3.22,0,4.45l24.88,14.47a8.47,8.47,0,0,0,7.69,0l25.06-14.47c2.14-1.23,2.15-3.22,0-4.46L133,228.29a8.5,8.5,0,0,0-7.7,0Z"/></g><g class="cls-17"><path class="cls-21" d="M48.55,227.84l0,6a2.69,2.69,0,0,0,1.59,2.21l0-6A2.72,2.72,0,0,1,48.55,227.84Z"/><path class="cls-23" d="M109.4,233.85l0-6a2.71,2.71,0,0,1-1.61,2.25l0,6A2.72,2.72,0,0,0,109.4,233.85Z"/><polygon class="cls-21" points="50.14 230.06 50.16 236.09 75.04 250.55 75.02 244.52 50.14 230.06"/><polygon class="cls-23" points="82.71 244.53 82.73 250.56 107.79 236.09 107.77 230.06 82.71 244.53"/><path class="cls-21" d="M75,244.52v6a8.54,8.54,0,0,0,7.71,0l0-6a8.47,8.47,0,0,1-7.68,0Z"/><path class="cls-24" d="M50.15,225.6c-2.12,1.23-2.14,3.22,0,4.46L75,244.52a8.51,8.51,0,0,0,7.69,0l25.06-14.47c2.14-1.24,2.15-3.23,0-4.46L82.91,211.14a8.43,8.43,0,0,0-7.7,0Z"/></g><text class="cls-45" transform="matrix(0.87, -0.5, -0.87, -0.5, 112.43, 249.3)"><tspan class="cls-46">D</tspan><tspan class="cls-47" x="6.95" y="0">A</tspan><tspan class="cls-48" x="12.66" y="0">T</tspan><tspan x="17.16" y="0">A</tspan></text><text class="cls-49" transform="matrix(0.87, -0.5, -0.87, -0.5, 59.82, 233.83)"><tspan class="cls-50">D</tspan><tspan class="cls-51" x="8.27" y="0">A</tspan><tspan class="cls-52" x="15.05" y="0">T</tspan><tspan x="20.4" y="0">A</tspan></text><path class="cls-23" d="M78.87,245.44v6a7.77,7.77,0,0,0,3.87-.92l0-6A7.9,7.9,0,0,1,78.87,245.44Z"/><path class="cls-28" d="M125.15,261.68l0,6a7.68,7.68,0,0,0,3.84.92v-6A8,8,0,0,1,125.15,261.68Z"/><path class="cls-9" d="M70.15,217.74c4.81,2.13,9.24,18.18,6.61,23.83s-6.83,6.08-12.11,4.67-11.27-8.34-13.22-14.77C48.78,222.71,56.46,211.64,70.15,217.74Z"/><path class="cls-3" d="M75.8,411.29v1.27c2.53,1.48,8.2.69,9.68,0,1-1.48,3.62-1.09,5.1-.5,5.67.5,7.75-.34,9.64-1.73,1-.7,2.68-2.53,2.48-4.47C96,407.41,75.8,411.29,75.8,411.29Z"/><path class="cls-3" d="M85.48,401.48s6.19,1.74,9.86,2.27,6.28-.09,7.15,1.22-1,4.71-4.27,5.84-9.86-.17-12.31.35-8.63,1.66-10.11.13,0-8.94,0-8.94Z"/><path class="cls-3" d="M51.14,393.32l11.08-12.41c4.42-1.27,9.07-1.53,8.48,2.55-.52,3.62-6.29,5.2-10.25,8.72l-3.65,3.25c-2.63,2.33-6,.29-5.66-2.11"/><path class="cls-9" d="M61.63,237.88A11.46,11.46,0,0,0,63,239.13a25,25,0,0,0,9.15,4.47c.56.15,1.17.28,1.79.39l-.28,3.2c-3.74,1-7.37-.55-10-1.27-1.92-.53-4.91-1-4.91-3l2.83-5Z"/><path class="cls-3" d="M56.8,395.43l3.65-3.25c4-3.52,9.73-5.1,10.25-8.72h0v0h0a3.91,3.91,0,0,1,0,1.23c-.52,3.62-6.29,5.2-10.25,8.72L56.8,396.6c-3.1,2.75-6.37.79-5.66-3.28-.32,2.4,3,4.44,5.66,2.11"/><path class="cls-53" d="M51.21,307.09c-3.83,5.41,5.74,20.41,3.13,39.08-1.78,12.66-5.24,33.91-4.41,45.91.15,2.18,8.69,3.75,11-6.83,3.93-18,8.87-29.2,10.6-43.15l-.92-40.47Z"/><path class="cls-54" d="M63.45,305.12c-1.06,16.81,11,37.39,10.19,51-.82,14,.7,31,.74,46.17,0,0,12.38,5.86,12.93-3.2,1.82-29.68,7.5-38.92-.17-93.23Z"/><path class="cls-15" d="M85.87,288.85a173.12,173.12,0,0,0-2.59-32.17A22,22,0,0,0,78,251.3l-4-4.8q-4.22-1-8.33-2.31a23.34,23.34,0,0,0-13.65,0h0c-5.84,2.48-7,6.41-4.36,14-.07.33,5.13,21.08,5.8,27.41.07.63-4.42,17.43-5.41,24.29,0,0,4.27,3.9,5.45,4.88,8.68,10.78,37.06-2.29,38.13-8C92.06,304.54,88.57,297.88,85.87,288.85Z"/><path class="cls-3" d="M71.94,218.73a9.92,9.92,0,0,1,2.3,4.11A19.48,19.48,0,0,1,75,229c.08,1.44.67,2.24.37,3s-2-3.2-3.73-3.6-1.44,4.65,2.24,6.08c1.57,2.4.32,8.3-.56,9.59s-6.33,2.93-10.93,1.31S54.71,239.05,50.91,233s0-10.48,0-10.48C49,218.32,63.27,213,69.2,212.8,72.88,212.88,71.94,218.73,71.94,218.73Z"/><path class="cls-16" d="M65.23,260.73c-1.85-6.37,5.22-14.2,11.52-12.11,2.24.74,4.14,1.48,5.32,3.46,2.91,4.89,3.4,21.62,5.8,31.73.36.09.74.15,1.11.22-3.85,5.2-5.67,7.82-9.08,12.58a6.86,6.86,0,0,1-.73-.28C78.16,295.79,65.25,260.8,65.23,260.73Z"/><path class="cls-3" d="M360.86,455l-10.4-.94a108,108,0,0,1-10.6,2.44c-3.93.56-6.74-.09-7.68,1.31a1.58,1.58,0,0,0-.22,1h0v0c-.19,2.07,1.63,4,2.66,4.76,2,1.49,4.26,2.39,10.35,1.85,1.6-.63,4.44-1.05,5.49.54,1.59.75,7.68,1.59,10.4,0v-1.36C362.45,463,360.86,455,360.86,455Z"/><path class="cls-7" d="M365.43,359.25c3.43,17.72-8.85,37.1-7.86,51.4,1.37,19.61,2.12,28.17,4.15,44.14,0,0-8,4.72-13.83-.69-6-31.27-8.66-36.88-7.83-94.11Z"/><path class="cls-30" d="M317,277.77c-3.52,4.1-.57,21,4.37,25s9,2.64,13.31-1,6.78-12.7,5.76-19.54C339,273,327,266.08,317,277.77Z"/><path class="cls-15" d="M315.78,279.49a10.13,10.13,0,0,0-.32,4.82,20.09,20.09,0,0,0,2,6c.56,1.37.37,2.37,1,2.91s.49-3.87,1.88-5,3.38,3.69.6,6.64c-.41,2.92,3.36,7.85,4.74,8.66s7.17-.07,10.73-3.6,4.33-9.18,5.18-16.51S337,273.7,337,273.7c-.09-4.69-15.68-3.39-21.25-.93C312.33,274.46,315.78,279.49,315.78,279.49Z"/><path class="cls-3" d="M340.94,464.48l-10.4-.94S323.88,465.41,320,466s-6.75-.1-7.69,1.31a1.54,1.54,0,0,0-.22,1h0v0c-.19,2.07,1.63,4,2.66,4.76,2,1.49,4.26,2.39,10.36,1.86,1.59-.63,4.43-1.05,5.48.53,1.59.75,7.68,1.6,10.4,0v-1.36C342.54,472.44,340.94,464.48,340.94,464.48Z"/><path class="cls-7" d="M357.54,363.72c1.14,18.07-13.65,37.83-14.51,52.41-1.18,20-1.21,34.13-1.25,50.41,0,0-13.3,6.29-13.9-3.44-1.95-31.89-4-40.27,4.2-98.62Z"/><path class="cls-12" d="M322.73,305.79c7.43-3.7,19.45-13.85,29.29-.58,9.21,12.44,13,49.82,14.05,57.27,1.43,10.09-26.67,15.49-32.93,15.21a2.61,2.61,0,0,1-2.68-2.11c-.53-1.84,1-3.15.56-4.85a7.19,7.19,0,0,0-1.47-2.57,6,6,0,0,1-1.36-2.62c-.24-1.6.76-3.1.94-4.71a9.28,9.28,0,0,0-.48-3.49c-2.54-9.49-7-18.28-9.44-27.84-1.67-6.46-4-16.74,1.27-22.09A5.87,5.87,0,0,1,322.73,305.79Z"/><path class="cls-12" d="M318.18,310.79c-6,18.86-6.51,28.2-12.33,35.65-.43.55-16.5,17.78-16.5,17.78a11.28,11.28,0,0,0,7.77,4.91c9-3.83,19.14-17.95,21.87-21,1.57-1.75,10.44-18,11.77-26.27S320.66,303.34,318.18,310.79Z"/><path class="cls-53" d="M89,297.67a55.69,55.69,0,0,1-9.81-1.34s-7.84-16.8-10-24.94c0,0,2.83,17.29,4.74,22.91s4.58,7.81,8.7,7.33a58.61,58.61,0,0,0,7.27-1.32Z"/><path class="cls-1" d="M414.5,392.45c-2.62.13-5.26.26-7.87.27-.71,0-1.46-.24-1.94.13s-.86,2.2-1.11,3c-.33,1-1.29,3-1.18,4-.13-1.29-.11-4.24-1-5.55a28.66,28.66,0,0,0-2,2.78,7.16,7.16,0,0,0-.49-3.33c-.74.75-2.18,1-3.14,1.39-4.8,2-10.26,4.85-13,9.48-3,5,1.7,10.36,5.34,13.61a20.48,20.48,0,0,0,6.28,3.94c.84.3,4.34.85,4.3,2.18a23.93,23.93,0,0,1,2-2.39c0,.83.67,1.57.44,2.33,1.33.45,2.89.24,4.16,1,.32-1.46,1.71-2.78,2.15-4.23a13.52,13.52,0,0,1,1.38,3.83,11.51,11.51,0,0,1,2.75-.07,65.23,65.23,0,0,0,11.6-.74,61,61,0,0,1,7-.47,31.62,31.62,0,0,1,1.09-4.14c.38-1.71.7-3.45,1.08-5.15a5.63,5.63,0,0,1,.67,1.92c.71,2.15,1.55,4.38,2.41,6.47.77-.41,9.63-1.41,9.58-1.89a30.7,30.7,0,0,1-.17-4.95,20.48,20.48,0,0,0,2.45,3.63c.89-1.46.38-4.8.74-6.5.88.72,1.11,2,1.66,3,.39.68,1,1.23,1,2a59.06,59.06,0,0,0,6.07-3.64c1.29-.81,3.77-1.86,4.58-3.14.57-.89.1-2.55.61-3.38a3.9,3.9,0,0,1,1.26,1.56c.45-.32,6.61-5,6.27-5.41-3.22-3.52-6.39-6.71-10.72-8.84-.81-.39-1.59-1-2.35-.75-1.57.51-2.77,2.8-4,3.78.46-1.92.18-4.15.35-6.15a26.11,26.11,0,0,0-6.62-1.09c-2,0-4.15-.25-6.17-.09a11.82,11.82,0,0,0-2.8.19c-1.67.71-2.79,5.83-3.24,7.62-1-1.66-.52-4.23-1.45-6.09s-2.9-.7-4.25-1.31c.4.75-.22,2.4-.49,3.17-.5-.82-.5-2-1.29-2.57a22.61,22.61,0,0,0-2.49,5.34c-.65-1-.58-2.44-1-3.58-.23-.56-.58-1.05-.75-1.59a47,47,0,0,1-7.31.47Z"/><path class="cls-2" d="M462.88,404.33c-3.56-.79-8.12.59-11.64,1.2-3.84.66-7.66,1.41-11.49,2.07a126.82,126.82,0,0,1-21.55,2.13c-14.77-.05-29.95,1-44.59-1.33-1-.16-.87-1.88.17-1.8,15.15,1.16,30.2,2,45.41,2.12,7.78,0,15.45-1.17,23.1-2.43,6.83-1.13,13.86-2.62,20.78-2.88.62,0,.53,1.08-.19.92Z"/></g></g></svg>